<svg width="50" height="50" viewBox="0 0 50 50" fill="none" xmlns="http://www.w3.org/2000/svg">
<g clip-path="url(#clip0)">
<path d="M7.45825 44.1583H37.1645L35.7458 39.5646L39.1395 42.4771L42.2499 45.2646L47.9166 50V5.15625C47.7749 2.36875 45.3749 0 42.3999 0L7.46867 0.00625C4.49575 0.00625 2.08325 2.37917 2.08325 5.16667V39C2.08325 41.9396 4.49159 44.1583 7.45825 44.1583ZM29.4333 11.8396L29.3645 11.8646L29.3895 11.8396H29.4333ZM13.5353 14.4833C17.3541 11.7042 20.8937 11.8375 20.8937 11.8375L21.1791 12.1187C16.5062 13.2333 14.3874 15.3208 14.3874 15.3208C14.3874 15.3208 14.9541 15.0437 15.9437 14.6208C22.2374 12.1458 29.1103 12.325 35.4728 15.4583C35.4728 15.4583 33.3499 13.5062 28.9645 12.2562L29.352 11.875C29.9583 11.8771 33.1666 11.9896 36.5999 14.5C36.5999 14.5 40.4416 21.0625 40.4416 29.125C40.3145 28.9708 38.0583 32.5958 32.252 32.7208C32.252 32.7208 31.2687 31.6083 30.5687 30.6375C33.9645 29.6625 35.2353 27.7125 35.2353 27.7125C34.1208 28.4146 33.1041 28.8312 32.2791 29.2479C31.0103 29.8062 29.7395 30.0812 28.4708 30.3625C22.4624 31.3375 19.0895 29.7062 15.902 28.4125L14.8124 27.8583C14.8124 27.8583 16.0812 29.8083 19.3416 30.7833C18.4853 31.7604 17.6374 32.8708 17.6374 32.8708C11.8333 32.7333 9.71659 29.1083 9.71659 29.1083C9.71659 21.0333 13.5353 14.4833 13.5353 14.4833Z" fill="white"/>
<path d="M29.8083 26.6061C31.2896 26.6061 32.4958 25.3561 32.4958 23.8145C32.4958 22.2832 31.2958 21.0332 29.8083 21.0332V21.0395C28.3333 21.0395 27.125 22.2853 27.1208 23.827C27.1208 25.3561 28.3271 26.6061 29.8083 26.6061Z" fill="white"/>
<path d="M20.1875 26.6061C21.6687 26.6061 22.875 25.3561 22.875 23.8145C22.875 22.2832 21.6771 21.0332 20.1958 21.0332L20.1875 21.0395C18.7062 21.0395 17.5 22.2853 17.5 23.827C17.5 25.3561 18.7062 26.6061 20.1875 26.6061Z" fill="white"/>
</g>
<defs>
<clipPath id="clip0">
<rect width="50" height="50" fill="white"/>
</clipPath>
</defs>
</svg>
