<svg width="2831" height="2831" viewBox="0 0 2831 2831" fill="none" xmlns="http://www.w3.org/2000/svg">
<path d="M0 1415.5C0 633.741 633.741 0 1415.5 0V0C2197.26 0 2831 633.741 2831 1415.5V1415.5C2831 2197.26 2197.26 2831 1415.5 2831V2831C633.741 2831 0 2197.26 0 1415.5V1415.5Z" fill="#041467"/>
<mask id="mask0" mask-type="alpha" maskUnits="userSpaceOnUse" x="61" y="61" width="2709" height="2709">
<path d="M61 1415.5C61 667.43 667.43 61 1415.5 61V61C2163.57 61 2770 667.43 2770 1415.5V1415.5C2770 2163.57 2163.57 2770 1415.5 2770V2770C667.43 2770 61 2163.57 61 1415.5V1415.5Z" fill="#C4C4C4"/>
</mask>
<g mask="url(#mask0)">
<mask id="mask1" mask-type="alpha" maskUnits="userSpaceOnUse" x="-20" y="808" width="2871" height="1314">
<path d="M-20 808H2851V2122H-20V808Z" fill="#0E0E30"/>
</mask>
<g mask="url(#mask1)">
<path d="M-20 808H2851V2122H-20V808Z" fill="#0E0E30"/>
<path fill-rule="evenodd" clip-rule="evenodd" d="M1566.68 808L1558.68 816H1177.52L1221.12 900.5H1626.35C1631.8 876.731 1653.08 859 1678.5 859C1708.05 859 1732 882.953 1732 912.5C1732 942.047 1708.05 966 1678.5 966C1653.44 966 1632.4 948.765 1626.59 925.5H1205.88L1149.38 816H1087.45L1028.45 879.5H626.393L570.868 817.141C563.56 820.887 555.277 823 546.5 823C532.07 823 518.975 817.287 509.352 808H596.203L637.607 854.5H1017.55L1060.76 808H1566.68ZM2497.43 808L2374.23 928H2262.07L2008.09 1184.5L1320.17 1184.5L1380.85 1121H1663.18L1781.18 1003H1945.72C1951.7 1026.01 1972.62 1043 1997.5 1043C2027.05 1043 2051 1019.05 2051 989.5C2051 959.953 2027.05 936 1997.5 936C1971.9 936 1950.5 953.98 1945.24 978H1770.82L1652.82 1096H1239.16L1154.62 1011.87C1158.69 1004.32 1161 995.679 1161 986.5C1161 956.953 1137.05 933 1107.5 933C1077.95 933 1054 956.953 1054 986.5C1054 1016.05 1077.95 1040 1107.5 1040C1118.8 1040 1129.28 1036.5 1137.92 1030.52L1228.84 1121H1346.27L1285.6 1184.5H1133.6L894.826 945.5H368.983L165.083 1140.19C155.877 1135.59 145.491 1133 134.5 1133C96.6685 1133 66 1163.67 66 1201.5C66 1239.33 96.6685 1270 134.5 1270C172.332 1270 203 1239.33 203 1201.5C203 1191.09 200.678 1181.22 196.524 1172.39L387.017 990.5H876.174L965.092 1079.5H660.577C650.745 1047.37 620.852 1024 585.5 1024C542.146 1024 507 1059.15 507 1102.5C507 1145.85 542.146 1181 585.5 1181C619.742 1181 648.863 1159.08 659.592 1128.5H1014.05L1227.35 1342H1078.68L930.683 1213H344.528L200.5 1349.11V1534.4L0 1713.31V1746.81L225.5 1545.6V1359.89L354.472 1238H921.317L1069.32 1367H1252.33L1334.75 1449.5H1008.32L866.322 1591.5H541.818C533.217 1573.46 514.814 1561 493.5 1561C463.953 1561 440 1584.95 440 1614.5C440 1644.05 463.953 1668 493.5 1668C522.378 1668 545.911 1645.12 546.963 1616.5H866.322L946.322 1696.5H1333.5V1907.04L1419.12 1966.46C1417.1 1972.1 1416 1978.17 1416 1984.5C1416 2014.05 1439.95 2038 1469.5 2038C1499.05 2038 1523 2014.05 1523 1984.5C1523 1954.95 1499.05 1931 1469.5 1931C1455.31 1931 1442.41 1936.53 1432.83 1945.54L1358.5 1893.96V1682H1358V1671.5H956.678L889.178 1604L1018.68 1474.5H1359.73L1408.92 1523.74L1461.9 1579H1520V1651.68L1668.82 1800.5H1947.35C1952.8 1824.27 1974.08 1842 1999.5 1842C2029.05 1842 2053 1818.05 2053 1788.5C2053 1758.95 2029.05 1735 1999.5 1735C1974.44 1735 1953.4 1752.23 1947.59 1775.5H1679.18L1545 1641.32V1579H1766.5C1774.77 1597.84 1793.6 1611 1815.5 1611C1845.05 1611 1869 1587.05 1869 1557.5C1869 1527.95 1845.05 1504 1815.5 1504C1794.38 1504 1776.12 1516.23 1767.42 1534H1481.1L1441.08 1492.26L1182.56 1233.5L2831 1233.5V1184.5L2078.45 1184.5L2159.65 1102.5H2411.13C2417.62 1124.75 2438.16 1141 2462.5 1141C2492.05 1141 2516 1117.05 2516 1087.5C2516 1057.95 2492.05 1034 2462.5 1034C2437.8 1034 2417 1050.74 2410.85 1073.5H2188.36L2282.93 978H2811V928H2412.92L2536.13 808H2497.43ZM2831 1394H2608.68L2488.68 1274H2363.85L2279.5 1346.78V1508.35L2397.49 1621H2658.99C2665.31 1643.5 2685.98 1660 2710.5 1660C2740.05 1660 2764 1636.05 2764 1606.5C2764 1576.95 2740.05 1553 2710.5 1553C2684.55 1553 2662.91 1571.48 2658.03 1596H2407.51L2304.5 1497.65V1358.22L2373.15 1299H2478.32L2598.32 1419H2831V1394ZM2831 1875.5H2358.32L2186.82 2047H1878.68L1805.24 1973.56C1809.54 1965.85 1812 1956.96 1812 1947.5C1812 1917.95 1788.05 1894 1758.5 1894C1728.95 1894 1705 1917.95 1705 1947.5C1705 1977.05 1728.95 2001 1758.5 2001C1769.52 2001 1779.76 1997.67 1788.28 1991.95L1868.32 2072H2197.18L2368.68 1900.5H2831V1875.5ZM2678.98 2122C2696.15 2107.06 2707 2085.05 2707 2060.5C2707 2015.49 2670.51 1979 2625.5 1979C2580.49 1979 2544 2015.49 2544 2060.5C2544 2085.05 2554.85 2107.06 2572.02 2122H2678.98ZM995.282 2122C996.403 2117.69 997 2113.16 997 2108.5C997 2078.95 973.047 2055 943.5 2055C918.078 2055 896.798 2072.73 891.351 2096.5H753.65L831.375 2014.5H1196.59C1202.4 2037.76 1223.44 2055 1248.5 2055C1278.05 2055 1302 2031.05 1302 2001.5C1302 1971.95 1278.05 1948 1248.5 1948C1223.08 1948 1201.8 1965.73 1196.35 1989.5H820.625L719.204 2096.5H522.822L497.322 2122H532.678L533.178 2121.5H891.59C891.632 2121.67 891.675 2121.83 891.718 2122H923.052C920.491 2118.13 919 2113.49 919 2108.5C919 2094.97 929.969 2084 943.5 2084C957.031 2084 968 2094.97 968 2108.5C968 2113.49 966.509 2118.13 963.948 2122H995.282ZM0 1951H146.773L337.239 1755.5H412.322L516.822 1860H891.468C897.097 1883.52 918.257 1901 943.5 1901C973.047 1901 997 1877.05 997 1847.5C997 1817.95 973.047 1794 943.5 1794C918.257 1794 897.097 1811.48 891.468 1835H527.178L422.678 1730.5H361.595L381 1710.58V1510.7L526.654 1366H757.718C763.7 1389.01 784.616 1406 809.5 1406C839.047 1406 863 1382.05 863 1352.5C863 1322.95 839.047 1299 809.5 1299C783.901 1299 762.501 1316.98 757.239 1341H516.346L356 1500.3V1700.42L136.227 1926H0V1951ZM309.424 808C307.65 811.622 306.274 815.474 305.351 819.5H91.5V844.5H305.59C311.398 867.765 332.436 885 357.5 885C387.047 885 411 861.047 411 831.5C411 823.069 409.05 815.093 405.576 808H364.451C374.597 810.996 382 820.383 382 831.5C382 845.031 371.031 856 357.5 856C343.969 856 333 845.031 333 831.5C333 820.383 340.403 810.996 350.549 808H309.424ZM981.46 808H893.54C903.202 821.9 919.288 831 937.5 831C955.712 831 971.798 821.9 981.46 808ZM1857.76 1376C1852.5 1400.02 1831.1 1418 1805.5 1418C1775.95 1418 1752 1394.05 1752 1364.5C1752 1334.95 1775.95 1311 1805.5 1311C1830.38 1311 1851.3 1327.99 1857.28 1351H1947.18L2313.18 1717H2491.24C2496.5 1692.98 2517.9 1675 2543.5 1675C2573.05 1675 2597 1698.95 2597 1728.5C2597 1758.05 2573.05 1782 2543.5 1782C2518.62 1782 2497.7 1765.01 2491.72 1742H2302.82L1936.82 1376H1857.76ZM2665 2060.5C2665 2082.32 2647.32 2100 2625.5 2100C2603.68 2100 2586 2082.32 2586 2060.5C2586 2038.68 2603.68 2021 2625.5 2021C2647.32 2021 2665 2038.68 2665 2060.5ZM585.5 1134C602.897 1134 617 1119.9 617 1102.5C617 1085.1 602.897 1071 585.5 1071C568.103 1071 554 1085.1 554 1102.5C554 1119.9 568.103 1134 585.5 1134ZM1494 1984.5C1494 1998.03 1483.03 2009 1469.5 2009C1455.97 2009 1445 1998.03 1445 1984.5C1445 1970.97 1455.97 1960 1469.5 1960C1483.03 1960 1494 1970.97 1494 1984.5ZM1999.5 1813C2013.03 1813 2024 1802.03 2024 1788.5C2024 1774.97 2013.03 1764 1999.5 1764C1985.97 1764 1975 1774.97 1975 1788.5C1975 1802.03 1985.97 1813 1999.5 1813ZM2022 989.5C2022 1003.03 2011.03 1014 1997.5 1014C1983.97 1014 1973 1003.03 1973 989.5C1973 975.969 1983.97 965 1997.5 965C2011.03 965 2022 975.969 2022 989.5ZM1107.5 1009C1119.93 1009 1130 998.926 1130 986.5C1130 974.073 1119.93 964 1107.5 964C1095.07 964 1085 974.073 1085 986.5C1085 998.926 1095.07 1009 1107.5 1009ZM1273 2001.5C1273 2015.03 1262.03 2026 1248.5 2026C1234.97 2026 1224 2015.03 1224 2001.5C1224 1987.97 1234.97 1977 1248.5 1977C1262.03 1977 1273 1987.97 1273 2001.5ZM1678.5 937C1692.03 937 1703 926.031 1703 912.5C1703 898.969 1692.03 888 1678.5 888C1664.97 888 1654 898.969 1654 912.5C1654 926.031 1664.97 937 1678.5 937ZM943.5 1872C957.031 1872 968 1861.03 968 1847.5C968 1833.97 957.031 1823 943.5 1823C929.969 1823 919 1833.97 919 1847.5C919 1861.03 929.969 1872 943.5 1872ZM493.5 1639C507.031 1639 518 1628.03 518 1614.5C518 1600.97 507.031 1590 493.5 1590C479.969 1590 469 1600.97 469 1614.5C469 1628.03 479.969 1639 493.5 1639ZM834 1352.5C834 1366.03 823.031 1377 809.5 1377C795.969 1377 785 1366.03 785 1352.5C785 1338.97 795.969 1328 809.5 1328C823.031 1328 834 1338.97 834 1352.5ZM2543.5 1753C2557.03 1753 2568 1742.03 2568 1728.5C2568 1714.97 2557.03 1704 2543.5 1704C2529.97 1704 2519 1714.97 2519 1728.5C2519 1742.03 2529.97 1753 2543.5 1753ZM1830 1364.5C1830 1378.03 1819.03 1389 1805.5 1389C1791.97 1389 1781 1378.03 1781 1364.5C1781 1350.97 1791.97 1340 1805.5 1340C1819.03 1340 1830 1350.97 1830 1364.5ZM2462.5 1112C2476.03 1112 2487 1101.03 2487 1087.5C2487 1073.97 2476.03 1063 2462.5 1063C2448.97 1063 2438 1073.97 2438 1087.5C2438 1101.03 2448.97 1112 2462.5 1112ZM2735 1606.5C2735 1620.03 2724.03 1631 2710.5 1631C2696.97 1631 2686 1620.03 2686 1606.5C2686 1592.97 2696.97 1582 2710.5 1582C2724.03 1582 2735 1592.97 2735 1606.5ZM161 1201.5C161 1216.14 149.136 1228 134.5 1228C119.864 1228 108 1216.14 108 1201.5C108 1186.86 119.864 1175 134.5 1175C149.136 1175 161 1186.86 161 1201.5ZM1815.5 1582C1829.03 1582 1840 1571.03 1840 1557.5C1840 1543.97 1829.03 1533 1815.5 1533C1801.97 1533 1791 1543.97 1791 1557.5C1791 1571.03 1801.97 1582 1815.5 1582ZM1783 1947.5C1783 1961.03 1772.03 1972 1758.5 1972C1744.97 1972 1734 1961.03 1734 1947.5C1734 1933.97 1744.97 1923 1758.5 1923C1772.03 1923 1783 1933.97 1783 1947.5Z" fill="#041467"/>
</g>
</g>
<path fill-rule="evenodd" clip-rule="evenodd" d="M97 1415.5C97 2143.69 687.313 2734 1415.5 2734C2143.69 2734 2734 2143.69 2734 1415.5C2734 687.313 2143.69 97 1415.5 97C687.313 97 97 687.313 97 1415.5ZM1415.5 61C667.43 61 61 667.43 61 1415.5C61 2163.57 667.43 2770 1415.5 2770C2163.57 2770 2770 2163.57 2770 1415.5C2770 667.43 2163.57 61 1415.5 61Z" fill="white"/>
<path d="M242 771H2592V808H242V771Z" fill="white"/>
<path d="M292 2122H2535V2159H292V2122Z" fill="white"/>
<path d="M2078 257.855V260H753V259.576C949.893 150.867 1176.25 89 1417.06 89C1656.6 89 1881.84 150.214 2078 257.855Z" fill="white"/>
<path d="M975 789.5H938V988L1186 988V1142H1223V951L975 951V789.5Z" fill="white"/>
<path d="M1355 789.5H1392V1142H1355V789.5Z" fill="white"/>
<path d="M1439 789.5H1476V1142H1439V789.5Z" fill="white"/>
<path d="M1856 789.5H1893V988H1645V1142H1608V951L1856 951V789.5Z" fill="white"/>
<path d="M1397 1906H1434V2140.5H1397V1906Z" fill="white"/>
<path fill-rule="evenodd" clip-rule="evenodd" d="M845.641 1131.5H642V1106.5H851C854.422 1106.5 857.695 1107.9 860.054 1110.38L1028.05 1286.88L1009.95 1304.12L845.641 1131.5Z" fill="white"/>
<path d="M644 1119C644 1143.85 623.853 1164 599 1164C574.147 1164 554 1143.85 554 1119C554 1094.15 574.147 1074 599 1074C623.853 1074 644 1094.15 644 1119Z" fill="white"/>
<path fill-rule="evenodd" clip-rule="evenodd" d="M499.987 1325.5H386.5V1300.5H505.5C509.012 1300.5 512.362 1301.98 514.73 1304.57L600.513 1398.5H898.5C900.423 1398.5 902.32 1398.94 904.043 1399.8L996.423 1445.5H1061V1470.5H993.5C991.577 1470.5 989.68 1470.06 987.957 1469.2L895.577 1423.5H595C591.488 1423.5 588.138 1422.02 585.77 1419.43L499.987 1325.5Z" fill="white"/>
<path d="M414 1313C414 1337.85 393.853 1358 369 1358C344.147 1358 324 1337.85 324 1313C324 1288.15 344.147 1268 369 1268C393.853 1268 414 1288.15 414 1313Z" fill="white"/>
<path fill-rule="evenodd" clip-rule="evenodd" d="M838.839 1416.73L647.839 1749.23C645.61 1753.11 641.476 1755.5 637 1755.5H362V1730.5H629.765L817.161 1404.27L838.839 1416.73Z" fill="white"/>
<path d="M364 1743C364 1767.85 343.853 1788 319 1788C294.147 1788 274 1767.85 274 1743C274 1718.15 294.147 1698 319 1698C343.853 1698 364 1718.15 364 1743Z" fill="white"/>
<path fill-rule="evenodd" clip-rule="evenodd" d="M903.924 1795.21C906.08 1791.08 910.348 1788.5 915 1788.5H1061.5V1813.5H922.568L818.576 2012.29C816.42 2016.42 812.152 2019 807.5 2019H592.5V1994H799.932L903.924 1795.21Z" fill="white"/>
<path d="M622 2007C622 2021.36 610.359 2033 596 2033C581.641 2033 570 2021.36 570 2007C570 1992.64 581.641 1981 596 1981C610.359 1981 622 1992.64 622 2007Z" fill="white"/>
<path fill-rule="evenodd" clip-rule="evenodd" d="M2038.86 1106.5H2225.5V1081.5H2031.5C2026.96 1081.5 2022.77 1083.96 2020.57 1087.94L1917.64 1273.5H1809V1298.5H1925C1929.54 1298.5 1933.73 1296.04 1935.93 1292.06L2038.86 1106.5Z" fill="white"/>
<path d="M2219 1094C2219 1107.81 2230.19 1119 2244 1119C2257.81 1119 2269 1107.81 2269 1094C2269 1080.19 2257.81 1069 2244 1069C2230.19 1069 2219 1080.19 2219 1094Z" fill="white"/>
<path fill-rule="evenodd" clip-rule="evenodd" d="M2324.68 1332.52C2322.32 1329.96 2318.99 1328.5 2315.5 1328.5H2199C2195.6 1328.5 2192.35 1329.88 2189.99 1332.33L2143.18 1381H1899.45L1860.09 1361.32C1858.35 1360.45 1856.44 1360 1854.5 1360H1812.5V1385H1851.55L1890.91 1404.68C1892.65 1405.55 1894.56 1406 1896.5 1406H2148.5C2151.9 1406 2155.15 1404.62 2157.51 1402.17L2204.32 1353.5H2310.03L2354.82 1401.98C2357.18 1404.54 2360.51 1406 2364 1406H2446.5V1381H2369.47L2324.68 1332.52Z" fill="white"/>
<path d="M2444.5 1393.5C2444.5 1418.35 2464.65 1438.5 2489.5 1438.5C2514.35 1438.5 2534.5 1418.35 2534.5 1393.5C2534.5 1368.65 2514.35 1348.5 2489.5 1348.5C2464.65 1348.5 2444.5 1368.65 2444.5 1393.5Z" fill="white"/>
<path fill-rule="evenodd" clip-rule="evenodd" d="M1892.36 1447.55C1890.32 1446.21 1887.94 1445.5 1885.5 1445.5H1816.5V1470.5H1881.76L1992.14 1542.95C1994.18 1544.29 1996.56 1545 1999 1545H2297.92L2382.2 1638.85C2384.57 1641.49 2387.95 1643 2391.5 1643H2486V1618H2397.08L2312.8 1524.15C2310.43 1521.51 2307.05 1520 2303.5 1520H2002.74L1892.36 1447.55Z" fill="white"/>
<path d="M2484 1631C2484 1655.85 2504.15 1676 2529 1676C2553.85 1676 2574 1655.85 2574 1631C2574 1606.15 2553.85 1586 2529 1586C2504.15 1586 2484 1606.15 2484 1631Z" fill="white"/>
<path fill-rule="evenodd" clip-rule="evenodd" d="M1847.98 1617.81C1846.02 1616.63 1843.78 1616 1841.5 1616H1829V1641H1838.01L1936.52 1700.69C1938.48 1701.87 1940.72 1702.5 1943 1702.5H2239.42L2322.19 1794.84C2324.56 1797.49 2327.95 1799 2331.5 1799H2438.5V1774H2337.08L2254.31 1681.66C2251.94 1679.01 2248.55 1677.5 2245 1677.5H1946.49L1847.98 1617.81Z" fill="white"/>
<path d="M2425 1786.5C2425 1811.63 2445.37 1832 2470.5 1832C2495.63 1832 2516 1811.63 2516 1786.5C2516 1761.37 2495.63 1741 2470.5 1741C2445.37 1741 2425 1761.37 2425 1786.5Z" fill="white"/>
<path fill-rule="evenodd" clip-rule="evenodd" d="M1798.9 1799.57L1977.9 1989.57C1980.26 1992.08 1983.56 1993.5 1987 1993.5H2208.5V1968.5H1992.4L1817.1 1782.43L1798.9 1799.57Z" fill="white"/>
<path d="M2195 1980.5C2195 2005.63 2215.37 2026 2240.5 2026C2265.63 2026 2286 2005.63 2286 1980.5C2286 1955.37 2265.63 1935 2240.5 1935C2215.37 1935 2195 1955.37 2195 1980.5Z" fill="white"/>
<path d="M1061 1162C1061 1150.96 1069.95 1142 1081 1142H1750C1761.05 1142 1770 1150.96 1770 1162V1839C1770 1850.05 1761.05 1859 1750 1859H1081C1069.95 1859 1061 1850.05 1061 1839V1162Z" fill="#0E0E30"/>
<path fill-rule="evenodd" clip-rule="evenodd" d="M1750 1160H1081C1079.9 1160 1079 1160.9 1079 1162V1839C1079 1840.11 1079.9 1841 1081 1841H1750C1751.1 1841 1752 1840.11 1752 1839V1162C1752 1160.9 1751.1 1160 1750 1160ZM1081 1142C1069.95 1142 1061 1150.96 1061 1162V1839C1061 1850.05 1069.95 1859 1081 1859H1750C1761.05 1859 1770 1850.05 1770 1839V1162C1770 1150.96 1761.05 1142 1750 1142H1081Z" fill="white"/>
<path fill-rule="evenodd" clip-rule="evenodd" d="M1666 1244H1165C1163.9 1244 1163 1244.9 1163 1246V1755C1163 1756.11 1163.9 1757 1165 1757H1666C1667.1 1757 1668 1756.11 1668 1755V1246C1668 1244.9 1667.1 1244 1666 1244ZM1165 1226C1153.95 1226 1145 1234.96 1145 1246V1755C1145 1766.05 1153.95 1775 1165 1775H1666C1677.05 1775 1686 1766.05 1686 1755V1246C1686 1234.96 1677.05 1226 1666 1226H1165Z" fill="white"/>
<path fill-rule="evenodd" clip-rule="evenodd" d="M1214 1269L1248.64 1308.22L1226.16 1328.08L1191.52 1288.86L1214 1269Z" fill="white"/>
<path fill-rule="evenodd" clip-rule="evenodd" d="M1219.5 1321C1232.48 1321 1243 1310.48 1243 1297.5C1243 1284.52 1232.48 1274 1219.5 1274C1206.52 1274 1196 1284.52 1196 1297.5C1196 1310.48 1206.52 1321 1219.5 1321ZM1219.5 1335C1240.21 1335 1257 1318.21 1257 1297.5C1257 1276.79 1240.21 1260 1219.5 1260C1198.79 1260 1182 1276.79 1182 1297.5C1182 1318.21 1198.79 1335 1219.5 1335Z" fill="white"/>
<path d="M1682.5 1151L1682.5 1108.69L1693.41 1080L1730.09 1080L1741 1108.69L1741 1151L1682.5 1151Z" fill="white"/>
<path d="M1597.86 1151L1597.86 1108.69L1608.76 1080L1645.45 1080L1656.36 1108.69L1656.36 1151L1597.86 1151Z" fill="white"/>
<path d="M1513.21 1151L1513.21 1108.69L1524.12 1080L1560.81 1080L1571.71 1108.69L1571.71 1151L1513.21 1151Z" fill="white"/>
<path d="M1428.57 1151L1428.57 1108.69L1439.48 1080L1476.16 1080L1487.07 1108.69L1487.07 1151L1428.57 1151Z" fill="white"/>
<path d="M1343.93 1151L1343.93 1108.69L1354.84 1080L1391.52 1080L1402.43 1108.69L1402.43 1151L1343.93 1151Z" fill="white"/>
<path d="M1259.29 1151L1259.29 1108.69L1270.19 1080L1306.88 1080L1317.79 1108.69L1317.79 1151L1259.29 1151Z" fill="white"/>
<path d="M1174.64 1151L1174.64 1108.69L1185.55 1080L1222.24 1080L1233.14 1108.69L1233.14 1151L1174.64 1151Z" fill="white"/>
<path d="M1090 1151L1090 1108.69L1100.91 1080L1137.59 1080L1148.5 1108.69L1148.5 1151L1090 1151Z" fill="white"/>
<path d="M1148.5 1850L1148.5 1892.31L1137.59 1921L1100.91 1921L1090 1892.31L1090 1850L1148.5 1850Z" fill="white"/>
<path d="M1247.25 1850L1247.25 1892.31L1236.34 1921L1199.66 1921L1188.75 1892.31L1188.75 1850L1247.25 1850Z" fill="white"/>
<path d="M1346 1850L1346 1892.31L1335.09 1921L1298.41 1921L1287.5 1892.31L1287.5 1850L1346 1850Z" fill="white"/>
<path d="M1444.75 1850L1444.75 1892.31L1433.84 1921L1397.16 1921L1386.25 1892.31L1386.25 1850L1444.75 1850Z" fill="white"/>
<path d="M1543.5 1850L1543.5 1892.31L1532.59 1921L1495.91 1921L1485 1892.31L1485 1850L1543.5 1850Z" fill="white"/>
<path d="M1642.25 1850L1642.25 1892.31L1631.34 1921L1594.66 1921L1583.75 1892.31L1583.75 1850L1642.25 1850Z" fill="white"/>
<path d="M1741 1850L1741 1892.31L1730.09 1921L1693.41 1921L1682.5 1892.31L1682.5 1850L1741 1850Z" fill="white"/>
<path d="M1761 1771.5L1803.31 1771.5L1832 1782.41L1832 1819.09L1803.31 1830L1761 1830L1761 1771.5Z" fill="white"/>
<path d="M1761 1685.71L1803.31 1685.71L1832 1696.62L1832 1733.31L1803.31 1744.21L1761 1744.21L1761 1685.71Z" fill="white"/>
<path d="M1761 1599.93L1803.31 1599.93L1832 1610.84L1832 1647.52L1803.31 1658.43L1761 1658.43L1761 1599.93Z" fill="white"/>
<path d="M1761 1514.14L1803.31 1514.14L1832 1525.05L1832 1561.74L1803.31 1572.64L1761 1572.64L1761 1514.14Z" fill="white"/>
<path d="M1761 1428.36L1803.31 1428.36L1832 1439.26L1832 1475.95L1803.31 1486.86L1761 1486.86L1761 1428.36Z" fill="white"/>
<path d="M1761 1342.57L1803.31 1342.57L1832 1353.48L1832 1390.16L1803.31 1401.07L1761 1401.07L1761 1342.57Z" fill="white"/>
<path d="M1761 1256.79L1803.31 1256.79L1832 1267.69L1832 1304.38L1803.31 1315.29L1761 1315.29L1761 1256.79Z" fill="white"/>
<path d="M1761 1171L1803.31 1171L1832 1181.91L1832 1218.59L1803.31 1229.5L1761 1229.5L1761 1171Z" fill="white"/>
<path d="M1070 1229.5H1027.69L999 1218.59V1181.91L1027.69 1171H1070V1229.5Z" fill="white"/>
<path d="M1070 1315.29H1027.69L999 1304.38V1267.69L1027.69 1256.79H1070V1315.29Z" fill="white"/>
<path d="M1070 1401.07H1027.69L999 1390.16V1353.48L1027.69 1342.57H1070V1401.07Z" fill="white"/>
<path d="M1070 1486.86H1027.69L999 1475.95V1439.26L1027.69 1428.36H1070V1486.86Z" fill="white"/>
<path d="M1070 1572.64H1027.69L999 1561.74V1525.05L1027.69 1514.14H1070V1572.64Z" fill="white"/>
<path d="M1070 1658.43H1027.69L999 1647.52V1610.84L1027.69 1599.93H1070V1658.43Z" fill="white"/>
<path d="M1070 1744.21H1027.69L999 1733.31V1696.62L1027.69 1685.71H1070V1744.21Z" fill="white"/>
<path d="M1070 1830H1027.69L999 1819.09V1782.41L1027.69 1771.5H1070V1830Z" fill="white"/>
<path d="M585 495.5C585 472.028 604.028 453 627.5 453V453C650.972 453 670 472.028 670 495.5V495.5C670 518.972 650.972 538 627.5 538V538C604.028 538 585 518.972 585 495.5V495.5Z" fill="white"/>
<path d="M2161 495.5C2161 472.028 2180.03 453 2203.5 453V453C2226.97 453 2246 472.028 2246 495.5V495.5C2246 518.972 2226.97 538 2203.5 538V538C2180.03 538 2161 518.972 2161 495.5V495.5Z" fill="white"/>
<path d="M753 426H728V551H753V472L788.5 522L823 472V551H848V426H823L788 477L753 426Z" fill="white"/>
<path fill-rule="evenodd" clip-rule="evenodd" d="M1005 551L947 427L888.5 551H916L925 532H968L977 551H1005ZM956 507L947 488L937.5 507H956Z" fill="white"/>
<path fill-rule="evenodd" clip-rule="evenodd" d="M1046 426H1089.5C1111.36 426 1131 445 1131 468.5C1131 492 1112.36 511 1090.5 511H1071V551H1046V426ZM1071 486H1089.5C1098.5 486 1106 478 1106 468.5C1106 459 1098 451 1089 451H1071V486Z" fill="white"/>
<path d="M1277 426V500.508C1277 527.101 1253.98 551 1225.5 551C1197.02 551 1174 528.318 1174 501.725L1174 426H1199L1199 500.508C1199 511.458 1208 526 1225.5 526C1243 526 1252 510.85 1252 499.9V426L1277 426Z" fill="white"/>
<path d="M1252 383L1231.5 375.5L1207.5 412L1222.5 420.5L1252 383Z" fill="white"/>
<path fill-rule="evenodd" clip-rule="evenodd" d="M1434 551L1376 427L1317.5 551H1345L1354 532H1397L1406 551H1434ZM1385 507L1376 488L1366.5 507H1385Z" fill="white"/>
<path d="M1564 426H1589V551H1564V426Z" fill="white"/>
<path d="M1712 551H1690C1663.5 550 1633 527.5 1633 489.5C1633 451.5 1663.11 427.5 1689.5 426L1712 426V451L1690.5 451C1678.5 451.5 1658 466 1658 489.5C1658 513 1679 525 1691 526H1712L1712 551Z" fill="white"/>
<path fill-rule="evenodd" clip-rule="evenodd" d="M1761 466H1804.5C1826.36 466 1846 485 1846 508.5C1846 532 1827.36 551 1805.5 551H1786V591H1761V466ZM1786 526H1804.5C1813.5 526 1821 518 1821 508.5C1821 499 1813 491 1804 491H1786V526Z" fill="white"/>
<path d="M1909 426H1884V551H1909H1971V526H1909V501H1940V476H1909V451H1971V426H1909Z" fill="white"/>
<path fill-rule="evenodd" clip-rule="evenodd" d="M2016 426H2059.5C2081.36 426 2101 445 2101 468.5C2101 492 2082.36 511 2060.5 511H2041V551H2016V426ZM2041 486H2059.5C2068.5 486 2076 478 2076 468.5C2076 459 2068 451 2059 451H2041V486Z" fill="white"/>
<path d="M947.5 675.5C951.601 672.163 953.5 667.296 953.5 661.5C953.5 657.314 951.91 653.58 949.73 650.711C947.551 647.812 943.38 645.369 937.5 642.5C933.054 640.334 931.5 640.5 929 638C926.5 635.5 926.5 633 926.5 633C926.5 627.5 931.322 627.16 934 627C939.532 627 943.139 630.833 944.5 633L955 627.5C954.5 624 945.983 616.79 943 616C940.017 615.21 936.861 614 932 614C925.346 614 921.922 615.857 918.136 619.107C914.379 622.356 912.5 626.821 912.5 632.5C912.5 635.515 913.074 638.15 914.221 640.404C915.368 642.658 916.903 644.634 918.824 646.332C920.746 648.03 923.86 649.569 927.703 651.413C931.805 653.404 934.515 654.853 935.834 655.76C935.834 655.76 939.5 658 939.5 661.5C939.5 665 937 667 932 667C927 667 924 664 924 664L921.5 661L911 666.5C914.452 676.5 924.289 680 931 680C938.285 680 943.427 678.837 947.5 675.5Z" fill="white"/>
<path d="M1013 680V627H1034V614H979V627H1000V680H1013Z" fill="white"/>
<path d="M1110.88 614L1110.88 653.34C1110.88 667.381 1098.73 680 1083.69 680C1068.66 680 1056.5 668.024 1056.5 653.983L1056.5 614H1069.7L1069.7 653.34C1069.7 659.122 1074.45 666.8 1083.69 666.8C1092.93 666.8 1097.68 658.801 1097.68 653.019L1097.68 614L1110.88 614Z" fill="white"/>
<path fill-rule="evenodd" clip-rule="evenodd" d="M1158.7 680H1134L1134 614H1158.96C1172.99 614.792 1188.29 627.436 1188.29 647.5C1188.29 667.564 1172.78 679.472 1158.7 680ZM1158.43 627.2C1164.81 627.464 1175 635.092 1175 647.5C1175 659.908 1164.54 666.272 1158.16 666.8H1147L1147 627.2L1158.43 627.2Z" fill="white"/>
<path d="M1225.22 614H1212V680.092H1225.22L1258 680.092V666.874H1225.22V653.655H1241.61V640.437H1225.22V627.218H1258V614H1225.22Z" fill="white"/>
<path d="M1294 614H1281V680H1294V639L1322 680H1335V614H1322V655.5L1294 614Z" fill="white"/>
<path d="M1393 680V627H1414V614H1359V627H1380V680H1393Z" fill="white"/>
<path d="M1497.22 614H1484V680.092H1497.22L1530 680.092V666.874H1497.22V653.655H1513.61V640.437H1497.22V627.218H1530V614H1497.22Z" fill="white"/>
<path fill-rule="evenodd" clip-rule="evenodd" d="M1577.7 680H1553L1553 614H1577.96C1591.99 614.792 1607.29 627.436 1607.29 647.5C1607.29 667.564 1591.78 679.472 1577.7 680ZM1577.43 627.2C1583.81 627.464 1594 635.092 1594 647.5C1594 659.908 1583.54 666.272 1577.16 666.8H1566L1566 627.2L1577.43 627.2Z" fill="white"/>
<path d="M1631 614H1644.2V680H1631V614Z" fill="white"/>
<path d="M1701 680V627H1722V614H1667V627H1688V680H1701Z" fill="white"/>
<path d="M1745 614H1758.2V680H1745V614Z" fill="white"/>
<path fill-rule="evenodd" clip-rule="evenodd" d="M1811.5 667C1822.55 667 1831.5 658.046 1831.5 647C1831.5 635.954 1822.55 627 1811.5 627C1800.45 627 1791.5 635.954 1791.5 647C1791.5 658.046 1800.45 667 1811.5 667ZM1811.5 680C1829.73 680 1844.5 665.225 1844.5 647C1844.5 628.775 1829.73 614 1811.5 614C1793.27 614 1778.5 628.775 1778.5 647C1778.5 665.225 1793.27 680 1811.5 680Z" fill="white"/>
<path d="M1880 614H1867V680H1880V639L1908 680H1921V614H1908V655.5L1880 614Z" fill="white"/>
<path d="M640 2115.99C584.5 2114.5 516.5 2139.5 472 2148.49L550 2297C553 2302.5 557.1 2307.6 565.5 2310L792 2378L881.5 2174C850.3 2172.4 773.667 2149.67 743.5 2138C691 2115 643.5 2115.99 640 2115.99Z" fill="white"/>
<path fill-rule="evenodd" clip-rule="evenodd" d="M486.932 2155.42L558.815 2292.28C561.051 2296.36 563.349 2298.98 568.247 2300.38C568.266 2300.39 568.286 2300.4 568.305 2300.4C568.328 2300.41 568.352 2300.41 568.375 2300.42L786.398 2365.88L866.878 2182.44C850.611 2179.96 829.705 2174.96 809.473 2169.42C782.451 2162.03 755.401 2153.32 739.893 2147.33C739.757 2147.27 739.621 2147.22 739.487 2147.16C690.444 2125.67 645.883 2125.96 640.39 2125.99C640.224 2125.99 640.094 2125.99 640 2125.99C639.91 2125.99 639.82 2125.99 639.731 2125.99C613.377 2125.28 583.578 2130.88 554.242 2138.03C542.737 2140.83 531.11 2143.93 519.865 2146.93C508.302 2150.01 497.142 2152.98 486.932 2155.42ZM640.123 2105.99C611.016 2105.23 579.122 2111.38 549.508 2118.59C536.92 2121.66 524.932 2124.86 513.634 2127.88C497.621 2132.16 482.995 2136.07 470.019 2138.69C466.933 2139.32 464.321 2141.36 462.969 2144.2C461.617 2147.04 461.683 2150.36 463.147 2153.14L541.147 2301.65C541.171 2301.7 541.196 2301.74 541.221 2301.79C544.966 2308.65 550.854 2316.19 562.683 2319.59L789.125 2387.58C793.964 2389.03 799.127 2386.64 801.157 2382.02L890.657 2178.02C891.978 2175.01 891.735 2171.54 890.009 2168.75C888.283 2165.95 885.294 2164.18 882.012 2164.01C867.636 2163.28 841.655 2157.49 814.752 2150.13C788.237 2142.87 762.005 2134.42 747.307 2128.75C694.515 2105.68 646.696 2105.96 640.453 2105.99C640.325 2105.99 640.215 2105.99 640.123 2105.99Z" fill="#041467"/>
<path d="M769 2214L904.5 2188.5L886 2246C853.833 2238.17 786.4 2222 774 2220C761.6 2218 765.5 2215.17 769 2214Z" fill="white"/>
<path fill-rule="evenodd" clip-rule="evenodd" d="M911.999 2181.88C914.332 2184.53 915.099 2188.21 914.019 2191.56L895.519 2249.06C893.913 2254.05 888.727 2256.96 883.634 2255.72C851.153 2247.81 784.298 2231.79 772.407 2229.87C769.022 2229.33 766.003 2228.62 763.568 2227.58C762.354 2227.06 760.79 2226.25 759.352 2224.96C757.867 2223.62 756.034 2221.3 755.614 2217.92C755.188 2214.51 756.431 2211.78 757.593 2210.13C758.695 2208.56 759.989 2207.54 760.858 2206.93C762.611 2205.72 764.499 2204.96 765.837 2204.51C766.267 2204.37 766.705 2204.26 767.15 2204.17L902.65 2178.67C906.115 2178.02 909.667 2179.24 911.999 2181.88ZM807.257 2216.97C829.733 2222.15 858.783 2229.11 879.327 2234.09L889.833 2201.43L807.257 2216.97ZM771.438 2209.19C771.432 2209.19 771.427 2209.19 771.422 2209.19C771.401 2209.18 771.407 2209.18 771.438 2209.19Z" fill="#041467"/>
<path d="M2191.5 2115.99C2247 2114.5 2315 2139.5 2359.5 2148.49L2281.5 2297C2278.5 2302.5 2274.4 2307.6 2266 2310L2039.5 2378L1950 2174C1981.2 2172.4 2057.83 2149.67 2088 2138C2140.5 2115 2188 2115.99 2191.5 2115.99Z" fill="white"/>
<path fill-rule="evenodd" clip-rule="evenodd" d="M2344.57 2155.42L2272.69 2292.28C2270.45 2296.36 2268.15 2298.98 2263.25 2300.38C2263.23 2300.39 2263.21 2300.39 2263.2 2300.4C2263.17 2300.41 2263.15 2300.41 2263.12 2300.42L2045.1 2365.88L1964.62 2182.44C1980.89 2179.95 2001.8 2174.96 2022.03 2169.42C2049.05 2162.02 2076.1 2153.32 2091.61 2147.33C2091.74 2147.27 2091.88 2147.22 2092.01 2147.16C2141.06 2125.67 2185.62 2125.96 2191.11 2125.99C2191.28 2125.99 2191.41 2125.99 2191.5 2125.99C2191.59 2125.99 2191.68 2125.99 2191.77 2125.99C2218.12 2125.28 2247.92 2130.88 2277.26 2138.03C2288.76 2140.83 2300.39 2143.93 2311.64 2146.93C2323.2 2150.01 2334.36 2152.98 2344.57 2155.42ZM2191.38 2105.99C2220.48 2105.23 2252.38 2111.38 2281.99 2118.59C2294.58 2121.66 2306.57 2124.86 2317.87 2127.88C2333.88 2132.16 2348.5 2136.07 2361.48 2138.69C2364.57 2139.32 2367.18 2141.36 2368.53 2144.2C2369.88 2147.04 2369.82 2150.36 2368.35 2153.14L2290.35 2301.65C2290.33 2301.69 2290.3 2301.74 2290.28 2301.79C2286.53 2308.65 2280.65 2316.19 2268.82 2319.59L2042.38 2387.58C2037.54 2389.03 2032.37 2386.64 2030.34 2382.02L1940.84 2178.02C1939.52 2175.01 1939.76 2171.54 1941.49 2168.75C1943.22 2165.95 1946.21 2164.18 1949.49 2164.01C1963.86 2163.27 1989.84 2157.49 2016.75 2150.13C2043.26 2142.87 2069.5 2134.42 2084.19 2128.75C2136.98 2105.68 2184.8 2105.96 2191.05 2105.99C2191.17 2105.99 2191.28 2105.99 2191.38 2105.99Z" fill="#041467"/>
<path d="M2062.5 2214L1927 2188.5L1945.5 2246C1977.67 2238.17 2045.1 2222 2057.5 2220C2069.9 2218 2066 2215.17 2062.5 2214Z" fill="white"/>
<path fill-rule="evenodd" clip-rule="evenodd" d="M1919.5 2181.89C1917.17 2184.53 1916.4 2188.21 1917.48 2191.56L1935.98 2249.06C1937.59 2254.05 1942.77 2256.96 1947.87 2255.72C1980.35 2247.81 2047.2 2231.79 2059.09 2229.87C2062.48 2229.33 2065.5 2228.62 2067.93 2227.58C2069.15 2227.06 2070.71 2226.25 2072.15 2224.96C2073.63 2223.62 2075.47 2221.3 2075.89 2217.92C2076.31 2214.51 2075.07 2211.79 2073.91 2210.13C2072.8 2208.56 2071.51 2207.54 2070.64 2206.93C2068.89 2205.72 2067 2204.96 2065.66 2204.51C2065.23 2204.37 2064.79 2204.26 2064.35 2204.17L1928.85 2178.67C1925.38 2178.02 1921.83 2179.24 1919.5 2181.89ZM2024.24 2216.98C2001.77 2222.15 1972.72 2229.11 1952.17 2234.09L1941.67 2201.44L2024.24 2216.98ZM2060.06 2209.19C2060.07 2209.19 2060.07 2209.19 2060.08 2209.19C2060.1 2209.18 2060.09 2209.18 2060.06 2209.19Z" fill="#041467"/>
<path d="M725 2222L630 2437.5C1243.71 2567.34 1587.79 2573.49 2201.5 2437.5L2106.5 2222C1567 2347.65 1264.5 2349.53 725 2222Z" fill="white"/>
<path fill-rule="evenodd" clip-rule="evenodd" d="M612.201 2446.62C609.453 2441.26 609.269 2434.94 611.699 2429.43L706.699 2213.93C710.588 2205.11 720.218 2200.32 729.601 2202.54C998.522 2266.11 1207.36 2297.18 1415.73 2296.94C1624.11 2296.71 1832.97 2265.17 2101.96 2202.52C2111.33 2200.34 2120.92 2205.13 2124.8 2213.93L2219.8 2429.43C2222.22 2434.91 2222.05 2441.19 2219.34 2446.54C2216.64 2451.88 2211.68 2455.73 2205.83 2457.03C1898.13 2525.21 1657.12 2557.96 1415.69 2557.19C1174.3 2556.41 933.357 2522.12 625.86 2457.07C619.966 2455.82 614.948 2451.98 612.201 2446.62ZM630 2437.5C636.699 2438.92 643.366 2440.32 650.002 2441.71C1244.64 2566.08 1586.91 2571.89 2181.58 2441.88C2188.19 2440.44 2194.83 2438.98 2201.5 2437.5L2106.5 2222C1567 2347.65 1264.5 2349.53 725 2222L630 2437.5Z" fill="#041467"/>
<path d="M1281.07 2480.69L1179 2472.47C1179.28 2469.34 1179.75 2466.44 1180.4 2463.77C1182.58 2454.73 1187.9 2446.44 1196.35 2438.92C1201.48 2434.37 1209.4 2429.03 1220.13 2422.88C1231.91 2416.28 1240.06 2411.22 1244.58 2407.71C1248.37 2404.73 1250.8 2401.06 1251.86 2396.71C1253.18 2391.24 1252.14 2386.98 1248.74 2383.91C1246.58 2382.08 1244.21 2380.86 1241.64 2380.24C1234.14 2378.42 1228.53 2380.08 1224.81 2385.2C1222.74 2387.89 1221.24 2391.13 1220.32 2394.93C1219.81 2397.05 1219.49 2399.33 1219.37 2401.79L1187.17 2399.13C1187.49 2394.84 1188.16 2390.86 1189.16 2387.21C1195.3 2361.87 1213.11 2350.41 1242.59 2352.82C1249.32 2353.39 1255.47 2354.64 1261.04 2356.58C1280.71 2363.35 1289.76 2376.59 1288.18 2396.29C1288 2398.49 1287.67 2400.6 1287.19 2402.61C1285.08 2411.31 1279.69 2418.4 1271.03 2423.86C1266.87 2426.4 1260.78 2429.77 1252.78 2433.97C1246.94 2436.58 1238.39 2440.83 1227.14 2446.73L1283.39 2451.31L1281.07 2480.69Z" fill="#0E0E30"/>
<path d="M1415.11 2423.08C1414.51 2442.25 1410.05 2457.51 1401.72 2468.86C1392.55 2481.26 1378.77 2487.15 1360.38 2486.55C1357.73 2486.41 1355.2 2486.17 1352.81 2485.83C1338.23 2483.79 1327.3 2477.22 1320.02 2466.11C1310.48 2451.32 1307.36 2432.1 1310.67 2408.45C1313.7 2386.84 1322.82 2372.35 1338.03 2364.98C1346 2361.11 1354.85 2359.33 1364.57 2359.65C1380.99 2360.21 1393.66 2365.93 1402.59 2376.81C1411.64 2387.7 1415.81 2403.12 1415.11 2423.08ZM1379.25 2423.97C1379.38 2418.08 1379.45 2413.85 1379.46 2411.3C1379.3 2406.64 1378.72 2402.5 1377.72 2398.89C1375.45 2391.03 1370.68 2386.94 1363.4 2386.62C1354.5 2386.3 1349.05 2392.84 1347.06 2406.24C1346.23 2411.34 1345.73 2416.96 1345.57 2423.08C1345.23 2433 1345.63 2440.48 1346.78 2445.51C1349.12 2454.53 1353.93 2459.21 1361.2 2459.53C1372.41 2459.94 1378.43 2448.09 1379.25 2423.97Z" fill="#0E0E30"/>
<path d="M1503.54 2359L1506.69 2483.33L1470.46 2484.41L1468.73 2412.95L1440.37 2413.72L1439.82 2388.91C1442.14 2388.79 1444.39 2388.57 1446.57 2388.24C1463.65 2385.69 1473.48 2376.21 1476.06 2359.81L1503.54 2359Z" fill="#0E0E30"/>
<path d="M1641.71 2431.9C1641.89 2434.2 1641.95 2436.39 1641.91 2438.45C1641.61 2451.08 1637.01 2460.97 1628.09 2468.11C1616.48 2477.48 1601.3 2481.95 1582.55 2481.51C1560.58 2481 1545.62 2470.77 1537.69 2450.83L1573.23 2444.26C1573.34 2444.49 1573.51 2444.89 1573.72 2445.47C1576.56 2451.97 1582.02 2454.86 1590.09 2454.13C1594.93 2453.78 1598.89 2451.98 1601.96 2448.72C1605.03 2445.46 1606.39 2441.41 1606.04 2436.58C1605.41 2429.22 1602.7 2424.27 1597.93 2421.75C1595.54 2420.43 1592.56 2419.9 1588.99 2420.16C1581.61 2420.79 1577 2423.44 1575.16 2428.11L1541.29 2429.55L1547.6 2359.06L1625.44 2352.79L1627.85 2382.31L1575.1 2386.58L1572.76 2405.31C1579.7 2399.04 1589.78 2396.06 1603.01 2396.37C1616.93 2396.69 1627.46 2401.82 1634.59 2411.75C1638.72 2417.36 1641.09 2424.08 1641.71 2431.9Z" fill="#0E0E30"/>
</svg>
