<svg width="3225" height="204" viewBox="0 0 3225 204" fill="none" xmlns="http://www.w3.org/2000/svg">
<path d="M1158.4 138.758H1117.3L1110.12 162H1078.08L1123.71 37.5859H1151.91L1197.88 162H1165.66L1158.4 138.758ZM1124.48 115.601H1151.22L1137.81 72.4492L1124.48 115.601ZM1268.12 118.079H1251.89V162H1221.89V37.5859H1270.86C1285.61 37.5859 1297.15 40.8615 1305.46 47.4126C1313.78 53.9637 1317.94 63.2207 1317.94 75.1836C1317.94 83.8424 1316.17 91.0202 1312.64 96.7168C1309.17 102.413 1303.7 107.028 1296.24 110.56L1322.21 160.718V162H1290.08L1268.12 118.079ZM1251.89 94.9224H1270.86C1276.55 94.9224 1280.83 93.4412 1283.67 90.479C1286.58 87.4598 1288.03 83.2728 1288.03 77.918C1288.03 72.5632 1286.58 68.3761 1283.67 65.3569C1280.77 62.2808 1276.5 60.7427 1270.86 60.7427H1251.89V94.9224ZM1444.33 60.7427H1406.98V162H1376.99V60.7427H1340.33V37.5859H1444.33V60.7427ZM1534.74 128.931C1534.74 124.545 1533.17 121.127 1530.04 118.677C1526.96 116.228 1521.52 113.693 1513.72 111.072C1505.91 108.452 1499.53 105.917 1494.58 103.467C1478.46 95.549 1470.39 84.6685 1470.39 70.8257C1470.39 63.9328 1472.39 57.8659 1476.38 52.625C1480.42 47.3271 1486.12 43.2256 1493.47 40.3203C1500.81 37.3581 1509.07 35.877 1518.25 35.877C1527.19 35.877 1535.19 37.472 1542.26 40.6621C1549.38 43.8522 1554.9 48.4095 1558.83 54.334C1562.77 60.2015 1564.73 66.9235 1564.73 74.5H1534.82C1534.82 69.43 1533.26 65.4993 1530.12 62.708C1527.05 59.9167 1522.86 58.521 1517.56 58.521C1512.21 58.521 1507.96 59.7173 1504.83 62.1099C1501.75 64.4455 1500.22 67.4362 1500.22 71.082C1500.22 74.2721 1501.93 77.1774 1505.34 79.7979C1508.76 82.3613 1514.77 85.0387 1523.37 87.8301C1531.98 90.5645 1539.04 93.5267 1544.56 96.7168C1558.01 104.464 1564.73 115.145 1564.73 128.76C1564.73 139.641 1560.63 148.186 1552.43 154.395C1544.22 160.604 1532.97 163.709 1518.67 163.709C1508.59 163.709 1499.45 161.915 1491.24 158.326C1483.1 154.68 1476.95 149.724 1472.79 143.458C1468.69 137.134 1466.64 129.871 1466.64 121.668H1496.71C1496.71 128.333 1498.42 133.261 1501.84 136.451C1505.32 139.584 1510.93 141.15 1518.67 141.15C1523.63 141.15 1527.53 140.097 1530.38 137.989C1533.29 135.824 1534.74 132.805 1534.74 128.931ZM1751.02 37.5859V119.019C1751.02 128.248 1749.06 136.251 1745.13 143.03C1741.2 149.752 1735.56 154.879 1728.21 158.411C1720.86 161.943 1712.17 163.709 1702.15 163.709C1686.99 163.709 1675.06 159.778 1666.34 151.917C1657.63 144.056 1653.18 133.289 1653.01 119.617V37.5859H1683.18V120.215C1683.52 133.83 1689.84 140.638 1702.15 140.638C1708.36 140.638 1713.06 138.929 1716.25 135.511C1719.44 132.093 1721.03 126.539 1721.03 118.848V37.5859H1751.02ZM1848.87 128.931C1848.87 124.545 1847.3 121.127 1844.17 118.677C1841.09 116.228 1835.65 113.693 1827.85 111.072C1820.05 108.452 1813.66 105.917 1808.71 103.467C1792.59 95.549 1784.53 84.6685 1784.53 70.8257C1784.53 63.9328 1786.52 57.8659 1790.51 52.625C1794.55 47.3271 1800.25 43.2256 1807.6 40.3203C1814.95 37.3581 1823.21 35.877 1832.38 35.877C1841.32 35.877 1849.33 37.472 1856.39 40.6621C1863.51 43.8522 1869.04 48.4095 1872.97 54.334C1876.9 60.2015 1878.86 66.9235 1878.86 74.5H1848.96C1848.96 69.43 1847.39 65.4993 1844.26 62.708C1841.18 59.9167 1836.99 58.521 1831.69 58.521C1826.34 58.521 1822.1 59.7173 1818.96 62.1099C1815.89 64.4455 1814.35 67.4362 1814.35 71.082C1814.35 74.2721 1816.06 77.1774 1819.48 79.7979C1822.89 82.3613 1828.9 85.0387 1837.51 87.8301C1846.11 90.5645 1853.17 93.5267 1858.7 96.7168C1872.14 104.464 1878.86 115.145 1878.86 128.76C1878.86 139.641 1874.76 148.186 1866.56 154.395C1858.35 160.604 1847.1 163.709 1832.81 163.709C1822.72 163.709 1813.58 161.915 1805.38 158.326C1797.23 154.68 1791.08 149.724 1786.92 143.458C1782.82 137.134 1780.77 129.871 1780.77 121.668H1810.85C1810.85 128.333 1812.55 133.261 1815.97 136.451C1819.45 139.584 1825.06 141.15 1832.81 141.15C1837.76 141.15 1841.66 140.097 1844.51 137.989C1847.42 135.824 1848.87 132.805 1848.87 128.931ZM1986.28 109.278H1939.11V138.929H1994.82V162H1909.12V37.5859H1994.99V60.7427H1939.11V86.9756H1986.28V109.278ZM2021.92 162V37.5859H2061.99C2072.99 37.5859 2082.87 40.0924 2091.64 45.1055C2100.42 50.0615 2107.25 57.0968 2112.15 66.2114C2117.11 75.269 2119.62 85.4375 2119.67 96.7168V102.442C2119.67 113.835 2117.25 124.061 2112.41 133.118C2107.62 142.119 2100.84 149.183 2092.07 154.31C2083.36 159.38 2073.62 161.943 2062.85 162H2021.92ZM2051.91 60.7427V138.929H2062.34C2070.94 138.929 2077.55 135.881 2082.16 129.786C2086.77 123.633 2089.08 114.519 2089.08 102.442V97.0586C2089.08 85.0387 2086.77 75.9811 2082.16 69.8857C2077.55 63.7904 2070.82 60.7427 2061.99 60.7427H2051.91Z" fill="#24315E"/>
<path d="M85.0659 138.758L87.9294 137.863L87.2715 135.758H85.0659V138.758ZM43.9648 138.758V135.758H41.7515L41.0984 137.873L43.9648 138.758ZM36.7871 162V165H39.0004L39.6535 162.885L36.7871 162ZM4.74365 162L1.92711 160.967L0.447974 165H4.74365V162ZM50.3735 37.5859V34.5859H48.2784L47.557 36.5529L50.3735 37.5859ZM78.5718 37.5859L81.3858 36.5461L80.6615 34.5859H78.5718V37.5859ZM124.543 162V165H128.85L127.357 160.96L124.543 162ZM92.3291 162L89.4657 162.895L90.1235 165H92.3291V162ZM51.1426 115.601L48.2762 114.716L47.076 118.601H51.1426V115.601ZM77.8882 115.601V118.601H81.9625L80.7529 114.71L77.8882 115.601ZM64.4727 72.4492L67.3374 71.5586L64.4635 62.3145L61.6063 71.5638L64.4727 72.4492ZM85.0659 135.758H43.9648V141.758H85.0659V135.758ZM41.0984 137.873L33.9207 161.115L39.6535 162.885L46.8313 139.643L41.0984 137.873ZM36.7871 159H4.74365V165H36.7871V159ZM7.5602 163.033L53.1901 38.6189L47.557 36.5529L1.92711 160.967L7.5602 163.033ZM50.3735 40.5859H78.5718V34.5859H50.3735V40.5859ZM75.7577 38.6257L121.729 163.04L127.357 160.96L81.3858 36.5461L75.7577 38.6257ZM124.543 159H92.3291V165H124.543V159ZM95.1925 161.105L87.9294 137.863L82.2025 139.653L89.4657 162.895L95.1925 161.105ZM51.1426 118.601H77.8882V112.601H51.1426V118.601ZM80.7529 114.71L67.3374 71.5586L61.6079 73.3398L75.0234 116.492L80.7529 114.71ZM61.6063 71.5638L48.2762 114.716L54.0089 116.487L67.339 73.3347L61.6063 71.5638ZM194.79 118.079L197.473 116.737L196.644 115.079H194.79V118.079ZM178.554 118.079V115.079H175.554V118.079H178.554ZM178.554 162V165H181.554V162H178.554ZM148.562 162H145.562V165H148.562V162ZM148.562 37.5859V34.5859H145.562V37.5859H148.562ZM239.309 96.7168L236.759 95.136L236.753 95.1452L236.747 95.1545L239.309 96.7168ZM222.902 110.56L221.619 107.848L218.808 109.178L220.238 111.939L222.902 110.56ZM248.879 160.718H251.879V159.988L251.543 159.339L248.879 160.718ZM248.879 162V165H251.879V162H248.879ZM216.75 162L214.067 163.342L214.896 165H216.75V162ZM178.554 94.9224H175.554V97.9224H178.554V94.9224ZM210.341 90.479L208.18 88.3989L208.179 88.3997L210.341 90.479ZM210.341 65.3569L208.16 67.4168L208.17 67.427L208.18 67.4371L210.341 65.3569ZM178.554 60.7427V57.7427H175.554V60.7427H178.554ZM194.79 115.079H178.554V121.079H194.79V115.079ZM175.554 118.079V162H181.554V118.079H175.554ZM178.554 159H148.562V165H178.554V159ZM151.562 162V37.5859H145.562V162H151.562ZM148.562 40.5859H197.524V34.5859H148.562V40.5859ZM197.524 40.5859C211.865 40.5859 222.66 43.7717 230.275 49.7693L233.987 45.0559C224.967 37.9513 212.691 34.5859 197.524 34.5859V40.5859ZM230.275 49.7693C237.769 55.6726 241.606 64.0044 241.606 75.1836H247.606C247.606 62.437 243.127 52.2548 233.987 45.0559L230.275 49.7693ZM241.606 75.1836C241.606 83.4442 239.922 90.0341 236.759 95.136L241.858 98.2976C245.759 92.0063 247.606 84.2407 247.606 75.1836H241.606ZM236.747 95.1545C233.643 100.245 228.679 104.507 221.619 107.848L224.186 113.271C232.051 109.549 238.025 104.582 241.87 98.2791L236.747 95.1545ZM220.238 111.939L246.215 162.098L251.543 159.339L225.566 109.18L220.238 111.939ZM245.879 160.718V162H251.879V160.718H245.879ZM248.879 159H216.75V165H248.879V159ZM219.433 160.658L197.473 116.737L192.106 119.421L214.067 163.342L219.433 160.658ZM178.554 97.9224H197.524V91.9224H178.554V97.9224ZM197.524 97.9224C203.714 97.9224 208.899 96.3068 212.504 92.5583L208.179 88.3997C206.087 90.5757 202.728 91.9224 197.524 91.9224V97.9224ZM212.503 92.5591C216.084 88.8377 217.699 83.8237 217.699 77.918H211.699C211.699 82.7219 210.409 86.0819 208.18 88.3989L212.503 92.5591ZM217.699 77.918C217.699 72.0122 216.084 66.9983 212.503 63.2768L208.18 67.4371C210.409 69.754 211.699 73.1141 211.699 77.918H217.699ZM212.522 63.2971C208.88 59.4403 203.703 57.7427 197.524 57.7427V63.7427C202.625 63.7427 205.992 65.1212 208.16 67.4168L212.522 63.2971ZM197.524 57.7427H178.554V63.7427H197.524V57.7427ZM175.554 60.7427V94.9224H181.554V60.7427H175.554ZM370.993 60.7427V63.7427H373.993V60.7427H370.993ZM333.651 60.7427V57.7427H330.651V60.7427H333.651ZM333.651 162V165H336.651V162H333.651ZM303.659 162H300.659V165H303.659V162ZM303.659 60.7427H306.659V57.7427H303.659V60.7427ZM267.001 60.7427H264.001V63.7427H267.001V60.7427ZM267.001 37.5859V34.5859H264.001V37.5859H267.001ZM370.993 37.5859H373.993V34.5859H370.993V37.5859ZM370.993 57.7427H333.651V63.7427H370.993V57.7427ZM330.651 60.7427V162H336.651V60.7427H330.651ZM333.651 159H303.659V165H333.651V159ZM306.659 162V60.7427H300.659V162H306.659ZM303.659 57.7427H267.001V63.7427H303.659V57.7427ZM270.001 60.7427V37.5859H264.001V60.7427H270.001ZM267.001 40.5859H370.993V34.5859H267.001V40.5859ZM367.993 37.5859V60.7427H373.993V37.5859H367.993ZM456.705 118.677L454.836 121.024L454.847 121.032L454.857 121.041L456.705 118.677ZM421.244 103.467L422.573 100.778L422.566 100.775L421.244 103.467ZM403.043 52.625L400.658 50.8046L400.655 50.8084L403.043 52.625ZM420.133 40.3203L421.236 43.1102L421.245 43.1065L421.254 43.1028L420.133 40.3203ZM468.924 40.6621L467.69 43.3962L467.698 43.3999L468.924 40.6621ZM485.501 54.334L483.002 55.9926L483.009 56.0037L485.501 54.334ZM491.397 74.5V77.5H494.397V74.5H491.397ZM461.49 74.5H458.49V77.5H461.49V74.5ZM456.791 62.708L454.775 64.9297L454.785 64.9389L454.795 64.948L456.791 62.708ZM431.498 62.1099L433.312 64.4992L433.318 64.4942L431.498 62.1099ZM432.01 79.7979L430.185 82.1787L430.198 82.1883L430.21 82.1979L432.01 79.7979ZM450.04 87.8301L449.114 90.6836L449.123 90.6864L449.131 90.6891L450.04 87.8301ZM471.231 96.7168L469.732 99.3149L469.734 99.3161L471.231 96.7168ZM417.911 158.326L416.686 161.064L416.697 161.069L416.709 161.074L417.911 158.326ZM399.454 143.458L396.937 145.09L396.946 145.103L396.954 145.116L399.454 143.458ZM393.302 121.668V118.668H390.302V121.668H393.302ZM423.38 121.668H426.38V118.668H423.38V121.668ZM428.507 136.451L426.46 138.644L426.479 138.661L426.498 138.679L428.507 136.451ZM457.047 137.989L458.831 140.4L458.839 140.394L457.047 137.989ZM464.405 128.931C464.405 123.73 462.495 119.396 458.553 116.314L454.857 121.041C457.182 122.858 458.405 125.359 458.405 128.931H464.405ZM458.574 116.33C455.062 113.534 449.193 110.865 441.339 108.228L439.429 113.916C447.184 116.52 452.196 118.922 454.836 121.024L458.574 116.33ZM441.339 108.228C433.607 105.632 427.365 103.146 422.573 100.778L419.914 106.157C425.035 108.687 431.552 111.271 439.429 113.916L441.339 108.228ZM422.566 100.775C407.11 93.1828 400.062 83.1701 400.062 70.8257H394.062C394.062 86.1669 403.135 97.9152 419.921 106.16L422.566 100.775ZM400.062 70.8257C400.062 64.5562 401.86 59.1347 405.43 54.4416L400.655 50.8084C396.251 56.5971 394.062 63.3094 394.062 70.8257H400.062ZM405.427 54.4454C409.084 49.6558 414.3 45.8524 421.236 43.1102L419.03 37.5304C411.269 40.5988 405.091 44.9985 400.658 50.8046L405.427 54.4454ZM421.254 43.1028C428.195 40.305 436.066 38.877 444.913 38.877V32.877C435.417 32.877 426.768 34.4111 419.011 37.5379L421.254 43.1028ZM444.913 38.877C453.496 38.877 461.069 40.4064 467.69 43.3962L470.159 37.928C462.652 34.5377 454.217 32.877 444.913 32.877V38.877ZM467.698 43.3999C474.353 46.3814 479.415 50.5866 483.002 55.9925L488.001 52.6754C483.727 46.2324 477.737 41.323 470.151 37.9243L467.698 43.3999ZM483.009 56.0037C486.584 61.3408 488.397 67.4727 488.397 74.5H494.397C494.397 66.3744 492.28 59.0622 487.994 52.6643L483.009 56.0037ZM491.397 71.5H461.49V77.5H491.397V71.5ZM464.49 74.5C464.49 68.7682 462.69 63.946 458.786 60.468L454.795 64.948C457.157 67.0527 458.49 70.0918 458.49 74.5H464.49ZM458.806 60.4863C455.039 57.0678 450.06 55.521 444.229 55.521V61.521C448.994 61.521 452.39 62.7656 454.775 64.9297L458.806 60.4863ZM444.229 55.521C438.45 55.521 433.492 56.8121 429.677 59.7256L433.318 64.4942C435.769 62.6225 439.3 61.521 444.229 61.521V55.521ZM429.683 59.7205C425.912 62.5842 423.883 66.4352 423.883 71.082H429.883C429.883 68.4372 430.931 66.3068 433.312 64.4992L429.683 59.7205ZM423.883 71.082C423.883 75.5079 426.305 79.2042 430.185 82.1787L433.836 77.417C430.879 75.1506 429.883 73.0364 429.883 71.082H423.883ZM430.21 82.1979C434.051 85.0785 440.468 87.8781 449.114 90.6836L450.966 84.9766C442.408 82.1994 436.805 79.6442 433.81 77.3979L430.21 82.1979ZM449.131 90.6891C457.605 93.3827 464.452 96.267 469.732 99.3149L472.731 94.1187C466.959 90.7864 459.679 87.7463 450.949 84.9711L449.131 90.6891ZM469.734 99.3161C482.404 106.618 488.397 116.386 488.397 128.76H494.397C494.397 113.904 486.947 102.311 472.729 94.1175L469.734 99.3161ZM488.397 128.76C488.397 138.764 484.687 146.398 477.282 152.003L480.903 156.787C489.905 149.974 494.397 140.517 494.397 128.76H488.397ZM477.282 152.003C469.769 157.69 459.235 160.709 445.34 160.709V166.709C460.043 166.709 472.01 163.519 480.903 156.787L477.282 152.003ZM445.34 160.709C435.619 160.709 426.892 158.98 419.114 155.577L416.709 161.074C425.336 164.849 434.896 166.709 445.34 166.709V160.709ZM419.137 155.587C411.411 152.13 405.744 147.51 401.954 141.799L396.954 145.116C401.482 151.938 408.119 157.23 416.686 161.064L419.137 155.587ZM401.971 141.825C398.213 136.031 396.302 129.345 396.302 121.668H390.302C390.302 130.397 392.493 138.238 396.937 145.09L401.971 141.825ZM393.302 124.668H423.38V118.668H393.302V124.668ZM420.38 121.668C420.38 128.804 422.213 134.68 426.46 138.644L430.554 134.258C427.965 131.841 426.38 127.862 426.38 121.668H420.38ZM426.498 138.679C430.788 142.546 437.306 144.15 445.34 144.15V138.15C437.88 138.15 433.176 136.621 430.516 134.223L426.498 138.679ZM445.34 144.15C450.689 144.15 455.297 143.016 458.831 140.4L455.262 135.577C453.1 137.177 449.904 138.15 445.34 138.15V144.15ZM458.839 140.394C462.564 137.619 464.405 133.676 464.405 128.931H458.405C458.405 131.934 457.341 134.029 455.254 135.583L458.839 140.394ZM677.69 37.5859H680.69V34.5859H677.69V37.5859ZM671.794 143.03L674.384 144.545L674.39 144.535L671.794 143.03ZM579.68 119.617H576.68V119.636L576.68 119.655L579.68 119.617ZM579.68 37.5859V34.5859H576.68V37.5859H579.68ZM609.844 37.5859H612.844V34.5859H609.844V37.5859ZM609.844 120.215H606.844V120.253L606.845 120.291L609.844 120.215ZM647.698 37.5859V34.5859H644.698V37.5859H647.698ZM674.69 37.5859V119.019H680.69V37.5859H674.69ZM674.69 119.019C674.69 127.814 672.821 135.279 669.199 141.525L674.39 144.535C678.629 137.224 680.69 128.681 680.69 119.019H674.69ZM669.205 141.516C665.591 147.697 660.412 152.421 653.576 155.707L656.175 161.115C664.036 157.337 670.137 151.808 674.384 144.545L669.205 141.516ZM653.576 155.707C646.715 159.005 638.491 160.709 628.813 160.709V166.709C639.188 166.709 648.339 164.881 656.175 161.115L653.576 155.707ZM628.813 160.709C614.18 160.709 603.039 156.922 595.02 149.689L591.001 154.145C600.413 162.634 613.14 166.709 628.813 166.709V160.709ZM595.02 149.689C587.029 142.482 582.842 132.566 582.68 119.58L576.68 119.655C576.86 134.012 581.56 145.63 591.001 154.145L595.02 149.689ZM582.68 119.617V37.5859H576.68V119.617H582.68ZM579.68 40.5859H609.844V34.5859H579.68V40.5859ZM606.844 37.5859V120.215H612.844V37.5859H606.844ZM606.845 120.291C607.026 127.496 608.797 133.432 612.644 137.574C616.541 141.769 622.111 143.638 628.813 143.638V137.638C623.212 137.638 619.467 136.102 617.041 133.49C614.565 130.825 613.004 126.55 612.843 120.14L606.845 120.291ZM628.813 143.638C635.569 143.638 641.179 141.765 645.106 137.558L640.719 133.464C638.266 136.093 634.477 137.638 628.813 137.638V143.638ZM645.106 137.558C649.061 133.32 650.698 126.837 650.698 118.848H644.698C644.698 126.24 643.145 130.865 640.719 133.464L645.106 137.558ZM650.698 118.848V37.5859H644.698V118.848H650.698ZM647.698 40.5859H677.69V34.5859H647.698V40.5859ZM770.837 118.677L768.968 121.024L768.979 121.032L768.989 121.041L770.837 118.677ZM735.375 103.467L736.705 100.778L736.698 100.775L735.375 103.467ZM717.175 52.625L714.79 50.8046L714.787 50.8084L717.175 52.625ZM734.265 40.3203L735.368 43.1102L735.377 43.1065L735.386 43.1028L734.265 40.3203ZM783.056 40.6621L781.821 43.3962L781.83 43.3999L783.056 40.6621ZM799.633 54.334L797.133 55.9926L797.141 56.0037L799.633 54.334ZM805.529 74.5V77.5H808.529V74.5H805.529ZM775.622 74.5H772.622V77.5H775.622V74.5ZM770.922 62.708L768.906 64.9297L768.917 64.9389L768.927 64.948L770.922 62.708ZM745.629 62.1099L747.444 64.4992L747.45 64.4942L745.629 62.1099ZM746.142 79.7979L744.317 82.1787L744.329 82.1883L744.342 82.1979L746.142 79.7979ZM764.172 87.8301L763.246 90.6836L763.254 90.6864L763.263 90.6891L764.172 87.8301ZM785.363 96.7168L783.863 99.3149L783.865 99.3161L785.363 96.7168ZM732.043 158.326L730.817 161.064L730.829 161.069L730.841 161.074L732.043 158.326ZM713.586 143.458L711.069 145.09L711.078 145.103L711.086 145.116L713.586 143.458ZM707.434 121.668V118.668H704.434V121.668H707.434ZM737.512 121.668H740.512V118.668H737.512V121.668ZM742.639 136.451L740.592 138.644L740.611 138.661L740.63 138.679L742.639 136.451ZM771.179 137.989L772.963 140.4L772.971 140.394L771.179 137.989ZM778.537 128.931C778.537 123.73 776.627 119.396 772.685 116.314L768.989 121.041C771.313 122.858 772.537 125.359 772.537 128.931H778.537ZM772.706 116.33C769.194 113.534 763.325 110.865 755.471 108.228L753.561 113.916C761.316 116.52 766.328 118.922 768.968 121.024L772.706 116.33ZM755.471 108.228C747.739 105.632 741.497 103.146 736.705 100.778L734.046 106.157C739.167 108.687 745.684 111.271 753.561 113.916L755.471 108.228ZM736.698 100.775C721.241 93.1828 714.193 83.1701 714.193 70.8257H708.193C708.193 86.1669 717.267 97.9152 734.053 106.16L736.698 100.775ZM714.193 70.8257C714.193 64.5562 715.991 59.1347 719.562 54.4416L714.787 50.8084C710.383 56.5971 708.193 63.3094 708.193 70.8257H714.193ZM719.559 54.4454C723.216 49.6558 728.431 45.8524 735.368 43.1102L733.162 37.5304C725.401 40.5988 719.223 44.9985 714.79 50.8046L719.559 54.4454ZM735.386 43.1028C742.327 40.305 750.198 38.877 759.045 38.877V32.877C749.549 32.877 740.9 34.4111 733.143 37.5379L735.386 43.1028ZM759.045 38.877C767.628 38.877 775.201 40.4064 781.821 43.3962L784.291 37.928C776.784 34.5377 768.349 32.877 759.045 32.877V38.877ZM781.83 43.3999C788.485 46.3814 793.547 50.5866 797.133 55.9925L802.133 52.6754C797.858 46.2324 791.869 41.323 784.283 37.9243L781.83 43.3999ZM797.141 56.0037C800.716 61.3408 802.529 67.4727 802.529 74.5H808.529C808.529 66.3744 806.412 59.0622 802.126 52.6643L797.141 56.0037ZM805.529 71.5H775.622V77.5H805.529V71.5ZM778.622 74.5C778.622 68.7682 776.822 63.946 772.918 60.468L768.927 64.948C771.289 67.0527 772.622 70.0918 772.622 74.5H778.622ZM772.938 60.4863C769.171 57.0678 764.192 55.521 758.361 55.521V61.521C763.126 61.521 766.521 62.7656 768.906 64.9297L772.938 60.4863ZM758.361 55.521C752.582 55.521 747.624 56.8121 743.809 59.7256L747.45 64.4942C749.901 62.6225 753.431 61.521 758.361 61.521V55.521ZM743.815 59.7205C740.044 62.5842 738.015 66.4352 738.015 71.082H744.015C744.015 68.4372 745.063 66.3068 747.444 64.4992L743.815 59.7205ZM738.015 71.082C738.015 75.5079 740.437 79.2042 744.317 82.1787L747.967 77.417C745.011 75.1506 744.015 73.0364 744.015 71.082H738.015ZM744.342 82.1979C748.183 85.0785 754.6 87.8781 763.246 90.6836L765.098 84.9766C756.54 82.1994 750.937 79.6442 747.942 77.3979L744.342 82.1979ZM763.263 90.6891C771.737 93.3827 778.584 96.267 783.863 99.3149L786.863 94.1187C781.091 90.7864 773.811 87.7463 765.081 84.9711L763.263 90.6891ZM783.865 99.3161C796.536 106.618 802.529 116.386 802.529 128.76H808.529C808.529 113.904 801.079 102.311 786.861 94.1175L783.865 99.3161ZM802.529 128.76C802.529 138.764 798.819 146.398 791.414 152.003L795.035 156.787C804.036 149.974 808.529 140.517 808.529 128.76H802.529ZM791.414 152.003C783.901 157.69 773.367 160.709 759.472 160.709V166.709C774.175 166.709 786.142 163.519 795.035 156.787L791.414 152.003ZM759.472 160.709C749.751 160.709 741.024 158.98 733.245 155.577L730.841 161.074C739.468 164.849 749.027 166.709 759.472 166.709V160.709ZM733.268 155.587C725.543 152.13 719.876 147.51 716.086 141.799L711.086 145.116C715.613 151.938 722.251 157.23 730.817 161.064L733.268 155.587ZM716.103 141.825C712.344 136.031 710.434 129.345 710.434 121.668H704.434C704.434 130.397 706.624 138.238 711.069 145.09L716.103 141.825ZM707.434 124.668H737.512V118.668H707.434V124.668ZM734.512 121.668C734.512 128.804 736.345 134.68 740.592 138.644L744.686 134.258C742.097 131.841 740.512 127.862 740.512 121.668H734.512ZM740.63 138.679C744.919 142.546 751.437 144.15 759.472 144.15V138.15C752.012 138.15 747.308 136.621 744.648 134.223L740.63 138.679ZM759.472 144.15C764.821 144.15 769.429 143.016 772.963 140.4L769.394 135.577C767.232 137.177 764.035 138.15 759.472 138.15V144.15ZM772.971 140.394C776.696 137.619 778.537 133.676 778.537 128.931H772.537C772.537 131.934 771.472 134.029 769.386 135.583L772.971 140.394ZM912.946 109.278V112.278H915.946V109.278H912.946ZM865.778 109.278V106.278H862.778V109.278H865.778ZM865.778 138.929H862.778V141.929H865.778V138.929ZM921.491 138.929H924.491V135.929H921.491V138.929ZM921.491 162V165H924.491V162H921.491ZM835.785 162H832.785V165H835.785V162ZM835.785 37.5859V34.5859H832.785V37.5859H835.785ZM921.662 37.5859H924.662V34.5859H921.662V37.5859ZM921.662 60.7427V63.7427H924.662V60.7427H921.662ZM865.778 60.7427V57.7427H862.778V60.7427H865.778ZM865.778 86.9756H862.778V89.9756H865.778V86.9756ZM912.946 86.9756H915.946V83.9756H912.946V86.9756ZM912.946 106.278H865.778V112.278H912.946V106.278ZM862.778 109.278V138.929H868.778V109.278H862.778ZM865.778 141.929H921.491V135.929H865.778V141.929ZM918.491 138.929V162H924.491V138.929H918.491ZM921.491 159H835.785V165H921.491V159ZM838.785 162V37.5859H832.785V162H838.785ZM835.785 40.5859H921.662V34.5859H835.785V40.5859ZM918.662 37.5859V60.7427H924.662V37.5859H918.662ZM921.662 57.7427H865.778V63.7427H921.662V57.7427ZM862.778 60.7427V86.9756H868.778V60.7427H862.778ZM865.778 89.9756H912.946V83.9756H865.778V89.9756ZM909.946 86.9756V109.278H915.946V86.9756H909.946ZM948.585 162H945.585V165H948.585V162ZM948.585 37.5859V34.5859H945.585V37.5859H948.585ZM1018.31 45.1055L1016.82 47.7102L1016.83 47.7139L1016.84 47.7175L1018.31 45.1055ZM1038.82 66.2114L1036.18 67.6318L1036.18 67.6416L1036.19 67.6515L1038.82 66.2114ZM1046.34 96.7168H1049.34V96.7092L1049.34 96.7016L1046.34 96.7168ZM1039.08 133.118L1036.43 131.704L1036.43 131.71L1039.08 133.118ZM1018.74 154.31L1020.25 156.903L1020.25 156.9L1018.74 154.31ZM989.515 162V165H989.523L989.531 165L989.515 162ZM978.578 60.7427V57.7427H975.578V60.7427H978.578ZM978.578 138.929H975.578V141.929H978.578V138.929ZM1008.83 129.786L1011.22 131.596L1011.23 131.586L1008.83 129.786ZM1008.83 69.8857L1011.22 68.075L1008.83 69.8857ZM951.585 162V37.5859H945.585V162H951.585ZM948.585 40.5859H988.661V34.5859H948.585V40.5859ZM988.661 40.5859C999.18 40.5859 1008.54 42.9787 1016.82 47.7102L1019.8 42.5007C1010.53 37.2062 1000.13 34.5859 988.661 34.5859V40.5859ZM1016.84 47.7175C1025.1 52.3867 1031.54 59.0025 1036.18 67.6318L1041.46 64.7911C1036.3 55.1912 1029.07 47.7363 1019.79 42.4935L1016.84 47.7175ZM1036.19 67.6515C1040.88 76.2325 1043.28 85.9037 1043.34 96.7319L1049.34 96.7016C1049.28 84.9713 1046.67 74.3056 1041.45 64.7714L1036.19 67.6515ZM1043.34 96.7168V102.442H1049.34V96.7168H1043.34ZM1043.34 102.442C1043.34 113.397 1041.01 123.127 1036.43 131.704L1041.72 134.533C1046.82 124.994 1049.34 114.274 1049.34 102.442H1043.34ZM1036.43 131.71C1031.9 140.221 1025.52 146.874 1017.23 151.719L1020.25 156.9C1029.51 151.491 1036.68 144.017 1041.72 134.526L1036.43 131.71ZM1017.23 151.716C1009 156.505 999.778 158.946 989.499 159L989.531 165C1000.79 164.94 1011.05 162.254 1020.25 156.903L1017.23 151.716ZM989.515 159H948.585V165H989.515V159ZM975.578 60.7427V138.929H981.578V60.7427H975.578ZM978.578 141.929H989.002V135.929H978.578V141.929ZM989.002 141.929C998.409 141.929 1005.96 138.542 1011.22 131.596L1006.43 127.975C1002.46 133.22 996.799 135.929 989.002 135.929V141.929ZM1011.23 131.586C1016.4 124.693 1018.75 114.822 1018.75 102.442H1012.75C1012.75 114.215 1010.49 122.574 1006.43 127.986L1011.23 131.586ZM1018.75 102.442V97.0586H1012.75V102.442H1018.75ZM1018.75 97.0586C1018.75 84.7343 1016.4 74.9144 1011.22 68.075L1006.43 71.6965C1010.49 77.0478 1012.75 85.3431 1012.75 97.0586H1018.75ZM1011.22 68.075C1005.94 61.1078 998.265 57.7427 988.661 57.7427V63.7427C996.716 63.7427 1002.48 66.4729 1006.43 71.6965L1011.22 68.075ZM988.661 57.7427H978.578V63.7427H988.661V57.7427Z" fill="#24315E"/>
<path d="M2231.73 138.758L2234.6 137.863L2233.94 135.758H2231.73V138.758ZM2190.63 138.758V135.758H2188.42L2187.77 137.873L2190.63 138.758ZM2183.45 162V165H2185.67L2186.32 162.885L2183.45 162ZM2151.41 162L2148.59 160.967L2147.11 165H2151.41V162ZM2197.04 37.5859V34.5859H2194.95L2194.22 36.5529L2197.04 37.5859ZM2225.24 37.5859L2228.05 36.5461L2227.33 34.5859H2225.24V37.5859ZM2271.21 162V165H2275.52L2274.02 160.96L2271.21 162ZM2239 162L2236.13 162.895L2236.79 165H2239V162ZM2197.81 115.601L2194.94 114.716L2193.74 118.601H2197.81V115.601ZM2224.55 115.601V118.601H2228.63L2227.42 114.71L2224.55 115.601ZM2211.14 72.4492L2214 71.5586L2211.13 62.3145L2208.27 71.5638L2211.14 72.4492ZM2231.73 135.758H2190.63V141.758H2231.73V135.758ZM2187.77 137.873L2180.59 161.115L2186.32 162.885L2193.5 139.643L2187.77 137.873ZM2183.45 159H2151.41V165H2183.45V159ZM2154.23 163.033L2199.86 38.6189L2194.22 36.5529L2148.59 160.967L2154.23 163.033ZM2197.04 40.5859H2225.24V34.5859H2197.04V40.5859ZM2222.42 38.6257L2268.4 163.04L2274.02 160.96L2228.05 36.5461L2222.42 38.6257ZM2271.21 159H2239V165H2271.21V159ZM2241.86 161.105L2234.6 137.863L2228.87 139.653L2236.13 162.895L2241.86 161.105ZM2197.81 118.601H2224.55V112.601H2197.81V118.601ZM2227.42 114.71L2214 71.5586L2208.27 73.3398L2221.69 116.492L2227.42 114.71ZM2208.27 71.5638L2194.94 114.716L2200.68 116.487L2214.01 73.3347L2208.27 71.5638ZM2341.46 118.079L2344.14 116.737L2343.31 115.079H2341.46V118.079ZM2325.22 118.079V115.079H2322.22V118.079H2325.22ZM2325.22 162V165H2328.22V162H2325.22ZM2295.23 162H2292.23V165H2295.23V162ZM2295.23 37.5859V34.5859H2292.23V37.5859H2295.23ZM2385.98 96.7168L2383.43 95.136L2383.42 95.1452L2383.41 95.1545L2385.98 96.7168ZM2369.57 110.56L2368.29 107.848L2365.48 109.178L2366.91 111.939L2369.57 110.56ZM2395.55 160.718H2398.55V159.988L2398.21 159.339L2395.55 160.718ZM2395.55 162V165H2398.55V162H2395.55ZM2363.42 162L2360.73 163.342L2361.56 165H2363.42V162ZM2325.22 94.9224H2322.22V97.9224H2325.22V94.9224ZM2357.01 90.479L2354.85 88.3989L2354.85 88.3997L2357.01 90.479ZM2357.01 65.3569L2354.83 67.4168L2354.84 67.427L2354.85 67.4371L2357.01 65.3569ZM2325.22 60.7427V57.7427H2322.22V60.7427H2325.22ZM2341.46 115.079H2325.22V121.079H2341.46V115.079ZM2322.22 118.079V162H2328.22V118.079H2322.22ZM2325.22 159H2295.23V165H2325.22V159ZM2298.23 162V37.5859H2292.23V162H2298.23ZM2295.23 40.5859H2344.19V34.5859H2295.23V40.5859ZM2344.19 40.5859C2358.53 40.5859 2369.33 43.7717 2376.94 49.7693L2380.65 45.0559C2371.63 37.9513 2359.36 34.5859 2344.19 34.5859V40.5859ZM2376.94 49.7693C2384.44 55.6726 2388.27 64.0044 2388.27 75.1836H2394.27C2394.27 62.437 2389.79 52.2548 2380.65 45.0559L2376.94 49.7693ZM2388.27 75.1836C2388.27 83.4442 2386.59 90.0341 2383.43 95.136L2388.53 98.2976C2392.43 92.0063 2394.27 84.2407 2394.27 75.1836H2388.27ZM2383.41 95.1545C2380.31 100.245 2375.35 104.507 2368.29 107.848L2370.85 113.271C2378.72 109.549 2384.69 104.582 2388.54 98.2791L2383.41 95.1545ZM2366.91 111.939L2392.88 162.098L2398.21 159.339L2372.23 109.18L2366.91 111.939ZM2392.55 160.718V162H2398.55V160.718H2392.55ZM2395.55 159H2363.42V165H2395.55V159ZM2366.1 160.658L2344.14 116.737L2338.77 119.421L2360.73 163.342L2366.1 160.658ZM2325.22 97.9224H2344.19V91.9224H2325.22V97.9224ZM2344.19 97.9224C2350.38 97.9224 2355.57 96.3068 2359.17 92.5583L2354.85 88.3997C2352.75 90.5757 2349.39 91.9224 2344.19 91.9224V97.9224ZM2359.17 92.5591C2362.75 88.8377 2364.37 83.8237 2364.37 77.918H2358.37C2358.37 82.7219 2357.08 86.0819 2354.85 88.3989L2359.17 92.5591ZM2364.37 77.918C2364.37 72.0122 2362.75 66.9983 2359.17 63.2768L2354.85 67.4371C2357.08 69.754 2358.37 73.1141 2358.37 77.918H2364.37ZM2359.19 63.2971C2355.55 59.4403 2350.37 57.7427 2344.19 57.7427V63.7427C2349.29 63.7427 2352.66 65.1212 2354.83 67.4168L2359.19 63.2971ZM2344.19 57.7427H2325.22V63.7427H2344.19V57.7427ZM2322.22 60.7427V94.9224H2328.22V60.7427H2322.22ZM2517.66 60.7427V63.7427H2520.66V60.7427H2517.66ZM2480.32 60.7427V57.7427H2477.32V60.7427H2480.32ZM2480.32 162V165H2483.32V162H2480.32ZM2450.33 162H2447.33V165H2450.33V162ZM2450.33 60.7427H2453.33V57.7427H2450.33V60.7427ZM2413.67 60.7427H2410.67V63.7427H2413.67V60.7427ZM2413.67 37.5859V34.5859H2410.67V37.5859H2413.67ZM2517.66 37.5859H2520.66V34.5859H2517.66V37.5859ZM2517.66 57.7427H2480.32V63.7427H2517.66V57.7427ZM2477.32 60.7427V162H2483.32V60.7427H2477.32ZM2480.32 159H2450.33V165H2480.32V159ZM2453.33 162V60.7427H2447.33V162H2453.33ZM2450.33 57.7427H2413.67V63.7427H2450.33V57.7427ZM2416.67 60.7427V37.5859H2410.67V60.7427H2416.67ZM2413.67 40.5859H2517.66V34.5859H2413.67V40.5859ZM2514.66 37.5859V60.7427H2520.66V37.5859H2514.66ZM2603.37 118.677L2601.5 121.024L2601.51 121.032L2601.52 121.041L2603.37 118.677ZM2567.91 103.467L2569.24 100.778L2569.23 100.775L2567.91 103.467ZM2549.71 52.625L2547.33 50.8046L2547.32 50.8084L2549.71 52.625ZM2566.8 40.3203L2567.9 43.1102L2567.91 43.1065L2567.92 43.1028L2566.8 40.3203ZM2615.59 40.6621L2614.36 43.3962L2614.36 43.3999L2615.59 40.6621ZM2632.17 54.334L2629.67 55.9926L2629.68 56.0037L2632.17 54.334ZM2638.06 74.5V77.5H2641.06V74.5H2638.06ZM2608.16 74.5H2605.16V77.5H2608.16V74.5ZM2603.46 62.708L2601.44 64.9297L2601.45 64.9389L2601.46 64.948L2603.46 62.708ZM2578.16 62.1099L2579.98 64.4992L2579.99 64.4942L2578.16 62.1099ZM2578.68 79.7979L2576.85 82.1787L2576.86 82.1883L2576.88 82.1979L2578.68 79.7979ZM2596.71 87.8301L2595.78 90.6836L2595.79 90.6864L2595.8 90.6891L2596.71 87.8301ZM2617.9 96.7168L2616.4 99.3149L2616.4 99.3161L2617.9 96.7168ZM2564.58 158.326L2563.35 161.064L2563.36 161.069L2563.38 161.074L2564.58 158.326ZM2546.12 143.458L2543.6 145.09L2543.61 145.103L2543.62 145.116L2546.12 143.458ZM2539.97 121.668V118.668H2536.97V121.668H2539.97ZM2570.05 121.668H2573.05V118.668H2570.05V121.668ZM2575.17 136.451L2573.13 138.644L2573.15 138.661L2573.16 138.679L2575.17 136.451ZM2603.71 137.989L2605.5 140.4L2605.51 140.394L2603.71 137.989ZM2611.07 128.931C2611.07 123.73 2609.16 119.396 2605.22 116.314L2601.52 121.041C2603.85 122.858 2605.07 125.359 2605.07 128.931H2611.07ZM2605.24 116.33C2601.73 113.534 2595.86 110.865 2588.01 108.228L2586.1 113.916C2593.85 116.52 2598.86 118.922 2601.5 121.024L2605.24 116.33ZM2588.01 108.228C2580.27 105.632 2574.03 103.146 2569.24 100.778L2566.58 106.157C2571.7 108.687 2578.22 111.271 2586.1 113.916L2588.01 108.228ZM2569.23 100.775C2553.78 93.1828 2546.73 83.1701 2546.73 70.8257H2540.73C2540.73 86.1669 2549.8 97.9152 2566.59 106.16L2569.23 100.775ZM2546.73 70.8257C2546.73 64.5562 2548.53 59.1347 2552.1 54.4416L2547.32 50.8084C2542.92 56.5971 2540.73 63.3094 2540.73 70.8257H2546.73ZM2552.09 54.4454C2555.75 49.6558 2560.97 45.8524 2567.9 43.1102L2565.7 37.5304C2557.94 40.5988 2551.76 44.9985 2547.33 50.8046L2552.09 54.4454ZM2567.92 43.1028C2574.86 40.305 2582.73 38.877 2591.58 38.877V32.877C2582.08 32.877 2573.43 34.4111 2565.68 37.5379L2567.92 43.1028ZM2591.58 38.877C2600.16 38.877 2607.74 40.4064 2614.36 43.3962L2616.83 37.928C2609.32 34.5377 2600.88 32.877 2591.58 32.877V38.877ZM2614.36 43.3999C2621.02 46.3814 2626.08 50.5866 2629.67 55.9925L2634.67 52.6754C2630.39 46.2324 2624.4 41.323 2616.82 37.9243L2614.36 43.3999ZM2629.68 56.0037C2633.25 61.3408 2635.06 67.4727 2635.06 74.5H2641.06C2641.06 66.3744 2638.95 59.0622 2634.66 52.6643L2629.68 56.0037ZM2638.06 71.5H2608.16V77.5H2638.06V71.5ZM2611.16 74.5C2611.16 68.7682 2609.36 63.946 2605.45 60.468L2601.46 64.948C2603.82 67.0527 2605.16 70.0918 2605.16 74.5H2611.16ZM2605.47 60.4863C2601.71 57.0678 2596.73 55.521 2590.9 55.521V61.521C2595.66 61.521 2599.06 62.7656 2601.44 64.9297L2605.47 60.4863ZM2590.9 55.521C2585.12 55.521 2580.16 56.8121 2576.34 59.7256L2579.99 64.4942C2582.44 62.6225 2585.97 61.521 2590.9 61.521V55.521ZM2576.35 59.7205C2572.58 62.5842 2570.55 66.4352 2570.55 71.082H2576.55C2576.55 68.4372 2577.6 66.3068 2579.98 64.4992L2576.35 59.7205ZM2570.55 71.082C2570.55 75.5079 2572.97 79.2042 2576.85 82.1787L2580.5 77.417C2577.55 75.1506 2576.55 73.0364 2576.55 71.082H2570.55ZM2576.88 82.1979C2580.72 85.0785 2587.14 87.8781 2595.78 90.6836L2597.63 84.9766C2589.07 82.1994 2583.47 79.6442 2580.48 77.3979L2576.88 82.1979ZM2595.8 90.6891C2604.27 93.3827 2611.12 96.267 2616.4 99.3149L2619.4 94.1187C2613.63 90.7864 2606.35 87.7463 2597.62 84.9711L2595.8 90.6891ZM2616.4 99.3161C2629.07 106.618 2635.06 116.386 2635.06 128.76H2641.06C2641.06 113.904 2633.61 102.311 2619.4 94.1175L2616.4 99.3161ZM2635.06 128.76C2635.06 138.764 2631.35 146.398 2623.95 152.003L2627.57 156.787C2636.57 149.974 2641.06 140.517 2641.06 128.76H2635.06ZM2623.95 152.003C2616.44 157.69 2605.9 160.709 2592.01 160.709V166.709C2606.71 166.709 2618.68 163.519 2627.57 156.787L2623.95 152.003ZM2592.01 160.709C2582.29 160.709 2573.56 158.98 2565.78 155.577L2563.38 161.074C2572 164.849 2581.56 166.709 2592.01 166.709V160.709ZM2565.8 155.587C2558.08 152.13 2552.41 147.51 2548.62 141.799L2543.62 145.116C2548.15 151.938 2554.79 157.23 2563.35 161.064L2565.8 155.587ZM2548.64 141.825C2544.88 136.031 2542.97 129.345 2542.97 121.668H2536.97C2536.97 130.397 2539.16 138.238 2543.6 145.09L2548.64 141.825ZM2539.97 124.668H2570.05V118.668H2539.97V124.668ZM2567.05 121.668C2567.05 128.804 2568.88 134.68 2573.13 138.644L2577.22 134.258C2574.63 131.841 2573.05 127.862 2573.05 121.668H2567.05ZM2573.16 138.679C2577.45 142.546 2583.97 144.15 2592.01 144.15V138.15C2584.55 138.15 2579.84 136.621 2577.18 134.223L2573.16 138.679ZM2592.01 144.15C2597.36 144.15 2601.96 143.016 2605.5 140.4L2601.93 135.577C2599.77 137.177 2596.57 138.15 2592.01 138.15V144.15ZM2605.51 140.394C2609.23 137.619 2611.07 133.676 2611.07 128.931H2605.07C2605.07 131.934 2604.01 134.029 2601.92 135.583L2605.51 140.394ZM2824.36 37.5859H2827.36V34.5859H2824.36V37.5859ZM2818.46 143.03L2821.05 144.545L2821.06 144.535L2818.46 143.03ZM2726.35 119.617H2723.35V119.636L2723.35 119.655L2726.35 119.617ZM2726.35 37.5859V34.5859H2723.35V37.5859H2726.35ZM2756.51 37.5859H2759.51V34.5859H2756.51V37.5859ZM2756.51 120.215H2753.51V120.253L2753.51 120.291L2756.51 120.215ZM2794.36 37.5859V34.5859H2791.36V37.5859H2794.36ZM2821.36 37.5859V119.019H2827.36V37.5859H2821.36ZM2821.36 119.019C2821.36 127.814 2819.49 135.279 2815.87 141.525L2821.06 144.535C2825.3 137.224 2827.36 128.681 2827.36 119.019H2821.36ZM2815.87 141.516C2812.26 147.697 2807.08 152.421 2800.24 155.707L2802.84 161.115C2810.7 157.337 2816.8 151.808 2821.05 144.545L2815.87 141.516ZM2800.24 155.707C2793.38 159.005 2785.16 160.709 2775.48 160.709V166.709C2785.85 166.709 2795.01 164.881 2802.84 161.115L2800.24 155.707ZM2775.48 160.709C2760.85 160.709 2749.71 156.922 2741.69 149.689L2737.67 154.145C2747.08 162.634 2759.81 166.709 2775.48 166.709V160.709ZM2741.69 149.689C2733.7 142.482 2729.51 132.566 2729.35 119.58L2723.35 119.655C2723.53 134.012 2728.23 145.63 2737.67 154.145L2741.69 149.689ZM2729.35 119.617V37.5859H2723.35V119.617H2729.35ZM2726.35 40.5859H2756.51V34.5859H2726.35V40.5859ZM2753.51 37.5859V120.215H2759.51V37.5859H2753.51ZM2753.51 120.291C2753.69 127.496 2755.46 133.432 2759.31 137.574C2763.21 141.769 2768.78 143.638 2775.48 143.638V137.638C2769.88 137.638 2766.13 136.102 2763.71 133.49C2761.23 130.825 2759.67 126.55 2759.51 120.14L2753.51 120.291ZM2775.48 143.638C2782.24 143.638 2787.85 141.765 2791.77 137.558L2787.39 133.464C2784.93 136.093 2781.14 137.638 2775.48 137.638V143.638ZM2791.77 137.558C2795.73 133.32 2797.36 126.837 2797.36 118.848H2791.36C2791.36 126.24 2789.81 130.865 2787.39 133.464L2791.77 137.558ZM2797.36 118.848V37.5859H2791.36V118.848H2797.36ZM2794.36 40.5859H2824.36V34.5859H2794.36V40.5859ZM2917.5 118.677L2915.63 121.024L2915.65 121.032L2915.66 121.041L2917.5 118.677ZM2882.04 103.467L2883.37 100.778L2883.36 100.775L2882.04 103.467ZM2863.84 52.625L2861.46 50.8046L2861.45 50.8084L2863.84 52.625ZM2880.93 40.3203L2882.03 43.1102L2882.04 43.1065L2882.05 43.1028L2880.93 40.3203ZM2929.72 40.6621L2928.49 43.3962L2928.5 43.3999L2929.72 40.6621ZM2946.3 54.334L2943.8 55.9926L2943.81 56.0037L2946.3 54.334ZM2952.2 74.5V77.5H2955.2V74.5H2952.2ZM2922.29 74.5H2919.29V77.5H2922.29V74.5ZM2917.59 62.708L2915.57 64.9297L2915.58 64.9389L2915.59 64.948L2917.59 62.708ZM2892.3 62.1099L2894.11 64.4992L2894.12 64.4942L2892.3 62.1099ZM2892.81 79.7979L2890.98 82.1787L2891 82.1883L2891.01 82.1979L2892.81 79.7979ZM2910.84 87.8301L2909.91 90.6836L2909.92 90.6864L2909.93 90.6891L2910.84 87.8301ZM2932.03 96.7168L2930.53 99.3149L2930.53 99.3161L2932.03 96.7168ZM2878.71 158.326L2877.48 161.064L2877.5 161.069L2877.51 161.074L2878.71 158.326ZM2860.25 143.458L2857.74 145.09L2857.74 145.103L2857.75 145.116L2860.25 143.458ZM2854.1 121.668V118.668H2851.1V121.668H2854.1ZM2884.18 121.668H2887.18V118.668H2884.18V121.668ZM2889.31 136.451L2887.26 138.644L2887.28 138.661L2887.3 138.679L2889.31 136.451ZM2917.85 137.989L2919.63 140.4L2919.64 140.394L2917.85 137.989ZM2925.2 128.931C2925.2 123.73 2923.29 119.396 2919.35 116.314L2915.66 121.041C2917.98 122.858 2919.2 125.359 2919.2 128.931H2925.2ZM2919.37 116.33C2915.86 113.534 2909.99 110.865 2902.14 108.228L2900.23 113.916C2907.98 116.52 2912.99 118.922 2915.63 121.024L2919.37 116.33ZM2902.14 108.228C2894.41 105.632 2888.16 103.146 2883.37 100.778L2880.71 106.157C2885.83 108.687 2892.35 111.271 2900.23 113.916L2902.14 108.228ZM2883.36 100.775C2867.91 93.1828 2860.86 83.1701 2860.86 70.8257H2854.86C2854.86 86.1669 2863.93 97.9152 2880.72 106.16L2883.36 100.775ZM2860.86 70.8257C2860.86 64.5562 2862.66 59.1347 2866.23 54.4416L2861.45 50.8084C2857.05 56.5971 2854.86 63.3094 2854.86 70.8257H2860.86ZM2866.23 54.4454C2869.88 49.6558 2875.1 45.8524 2882.03 43.1102L2879.83 37.5304C2872.07 40.5988 2865.89 44.9985 2861.46 50.8046L2866.23 54.4454ZM2882.05 43.1028C2888.99 40.305 2896.86 38.877 2905.71 38.877V32.877C2896.22 32.877 2887.57 34.4111 2879.81 37.5379L2882.05 43.1028ZM2905.71 38.877C2914.29 38.877 2921.87 40.4064 2928.49 43.3962L2930.96 37.928C2923.45 34.5377 2915.02 32.877 2905.71 32.877V38.877ZM2928.5 43.3999C2935.15 46.3814 2940.21 50.5866 2943.8 55.9925L2948.8 52.6754C2944.53 46.2324 2938.54 41.323 2930.95 37.9243L2928.5 43.3999ZM2943.81 56.0037C2947.38 61.3408 2949.2 67.4727 2949.2 74.5H2955.2C2955.2 66.3744 2953.08 59.0622 2948.79 52.6643L2943.81 56.0037ZM2952.2 71.5H2922.29V77.5H2952.2V71.5ZM2925.29 74.5C2925.29 68.7682 2923.49 63.946 2919.58 60.468L2915.59 64.948C2917.96 67.0527 2919.29 70.0918 2919.29 74.5H2925.29ZM2919.61 60.4863C2915.84 57.0678 2910.86 55.521 2905.03 55.521V61.521C2909.79 61.521 2913.19 62.7656 2915.57 64.9297L2919.61 60.4863ZM2905.03 55.521C2899.25 55.521 2894.29 56.8121 2890.48 59.7256L2894.12 64.4942C2896.57 62.6225 2900.1 61.521 2905.03 61.521V55.521ZM2890.48 59.7205C2886.71 62.5842 2884.68 66.4352 2884.68 71.082H2890.68C2890.68 68.4372 2891.73 66.3068 2894.11 64.4992L2890.48 59.7205ZM2884.68 71.082C2884.68 75.5079 2887.1 79.2042 2890.98 82.1787L2894.63 77.417C2891.68 75.1506 2890.68 73.0364 2890.68 71.082H2884.68ZM2891.01 82.1979C2894.85 85.0785 2901.27 87.8781 2909.91 90.6836L2911.76 84.9766C2903.21 82.1994 2897.6 79.6442 2894.61 77.3979L2891.01 82.1979ZM2909.93 90.6891C2918.4 93.3827 2925.25 96.267 2930.53 99.3149L2933.53 94.1187C2927.76 90.7864 2920.48 87.7463 2911.75 84.9711L2909.93 90.6891ZM2930.53 99.3161C2943.2 106.618 2949.2 116.386 2949.2 128.76H2955.2C2955.2 113.904 2947.75 102.311 2933.53 94.1175L2930.53 99.3161ZM2949.2 128.76C2949.2 138.764 2945.49 146.398 2938.08 152.003L2941.7 156.787C2950.7 149.974 2955.2 140.517 2955.2 128.76H2949.2ZM2938.08 152.003C2930.57 157.69 2920.03 160.709 2906.14 160.709V166.709C2920.84 166.709 2932.81 163.519 2941.7 156.787L2938.08 152.003ZM2906.14 160.709C2896.42 160.709 2887.69 158.98 2879.91 155.577L2877.51 161.074C2886.13 164.849 2895.69 166.709 2906.14 166.709V160.709ZM2879.94 155.587C2872.21 152.13 2866.54 147.51 2862.75 141.799L2857.75 145.116C2862.28 151.938 2868.92 157.23 2877.48 161.064L2879.94 155.587ZM2862.77 141.825C2859.01 136.031 2857.1 129.345 2857.1 121.668H2851.1C2851.1 130.397 2853.29 138.238 2857.74 145.09L2862.77 141.825ZM2854.1 124.668H2884.18V118.668H2854.1V124.668ZM2881.18 121.668C2881.18 128.804 2883.01 134.68 2887.26 138.644L2891.35 134.258C2888.76 131.841 2887.18 127.862 2887.18 121.668H2881.18ZM2887.3 138.679C2891.59 142.546 2898.1 144.15 2906.14 144.15V138.15C2898.68 138.15 2893.97 136.621 2891.31 134.223L2887.3 138.679ZM2906.14 144.15C2911.49 144.15 2916.1 143.016 2919.63 140.4L2916.06 135.577C2913.9 137.177 2910.7 138.15 2906.14 138.15V144.15ZM2919.64 140.394C2923.36 137.619 2925.2 133.676 2925.2 128.931H2919.2C2919.2 131.934 2918.14 134.029 2916.05 135.583L2919.64 140.394ZM3059.61 109.278V112.278H3062.61V109.278H3059.61ZM3012.44 109.278V106.278H3009.44V109.278H3012.44ZM3012.44 138.929H3009.44V141.929H3012.44V138.929ZM3068.16 138.929H3071.16V135.929H3068.16V138.929ZM3068.16 162V165H3071.16V162H3068.16ZM2982.45 162H2979.45V165H2982.45V162ZM2982.45 37.5859V34.5859H2979.45V37.5859H2982.45ZM3068.33 37.5859H3071.33V34.5859H3068.33V37.5859ZM3068.33 60.7427V63.7427H3071.33V60.7427H3068.33ZM3012.44 60.7427V57.7427H3009.44V60.7427H3012.44ZM3012.44 86.9756H3009.44V89.9756H3012.44V86.9756ZM3059.61 86.9756H3062.61V83.9756H3059.61V86.9756ZM3059.61 106.278H3012.44V112.278H3059.61V106.278ZM3009.44 109.278V138.929H3015.44V109.278H3009.44ZM3012.44 141.929H3068.16V135.929H3012.44V141.929ZM3065.16 138.929V162H3071.16V138.929H3065.16ZM3068.16 159H2982.45V165H3068.16V159ZM2985.45 162V37.5859H2979.45V162H2985.45ZM2982.45 40.5859H3068.33V34.5859H2982.45V40.5859ZM3065.33 37.5859V60.7427H3071.33V37.5859H3065.33ZM3068.33 57.7427H3012.44V63.7427H3068.33V57.7427ZM3009.44 60.7427V86.9756H3015.44V60.7427H3009.44ZM3012.44 89.9756H3059.61V83.9756H3012.44V89.9756ZM3056.61 86.9756V109.278H3062.61V86.9756H3056.61ZM3095.25 162H3092.25V165H3095.25V162ZM3095.25 37.5859V34.5859H3092.25V37.5859H3095.25ZM3164.98 45.1055L3163.49 47.7102L3163.5 47.7139L3163.5 47.7175L3164.98 45.1055ZM3185.49 66.2114L3182.84 67.6318L3182.85 67.6416L3182.85 67.6515L3185.49 66.2114ZM3193.01 96.7168H3196.01V96.7092L3196.01 96.7016L3193.01 96.7168ZM3185.74 133.118L3183.1 131.704L3183.09 131.71L3185.74 133.118ZM3165.41 154.31L3166.91 156.903L3166.92 156.9L3165.41 154.31ZM3136.18 162V165H3136.19L3136.2 165L3136.18 162ZM3125.24 60.7427V57.7427H3122.24V60.7427H3125.24ZM3125.24 138.929H3122.24V141.929H3125.24V138.929ZM3155.49 129.786L3157.89 131.596L3157.89 131.586L3155.49 129.786ZM3155.49 69.8857L3157.89 68.075L3155.49 69.8857ZM3098.25 162V37.5859H3092.25V162H3098.25ZM3095.25 40.5859H3135.33V34.5859H3095.25V40.5859ZM3135.33 40.5859C3145.85 40.5859 3155.21 42.9787 3163.49 47.7102L3166.47 42.5007C3157.2 37.2062 3146.8 34.5859 3135.33 34.5859V40.5859ZM3163.5 47.7175C3171.77 52.3867 3178.21 59.0025 3182.84 67.6318L3188.13 64.7911C3182.97 55.1912 3175.73 47.7363 3166.45 42.4935L3163.5 47.7175ZM3182.85 67.6515C3187.55 76.2325 3189.95 85.9037 3190.01 96.7319L3196.01 96.7016C3195.95 84.9713 3193.33 74.3056 3188.12 64.7714L3182.85 67.6515ZM3190.01 96.7168V102.442H3196.01V96.7168H3190.01ZM3190.01 102.442C3190.01 113.397 3187.68 123.127 3183.1 131.704L3188.39 134.533C3193.49 124.994 3196.01 114.274 3196.01 102.442H3190.01ZM3183.09 131.71C3178.57 140.221 3172.18 146.874 3163.89 151.719L3166.92 156.9C3176.17 151.491 3183.35 144.017 3188.39 134.526L3183.09 131.71ZM3163.9 151.716C3155.67 156.505 3146.44 158.946 3136.17 159L3136.2 165C3147.45 164.94 3157.71 162.254 3166.91 156.903L3163.9 151.716ZM3136.18 159H3095.25V165H3136.18V159ZM3122.24 60.7427V138.929H3128.24V60.7427H3122.24ZM3125.24 141.929H3135.67V135.929H3125.24V141.929ZM3135.67 141.929C3145.08 141.929 3152.63 138.542 3157.89 131.596L3153.1 127.975C3149.13 133.22 3143.47 135.929 3135.67 135.929V141.929ZM3157.89 131.586C3163.06 124.693 3165.41 114.822 3165.41 102.442H3159.41C3159.41 114.215 3157.15 122.574 3153.09 127.986L3157.89 131.586ZM3165.41 102.442V97.0586H3159.41V102.442H3165.41ZM3165.41 97.0586C3165.41 84.7343 3163.06 74.9144 3157.89 68.075L3153.1 71.6965C3157.15 77.0478 3159.41 85.3431 3159.41 97.0586H3165.41ZM3157.89 68.075C3152.61 61.1078 3144.93 57.7427 3135.33 57.7427V63.7427C3143.38 63.7427 3149.15 66.4729 3153.1 71.6965L3157.89 68.075ZM3135.33 57.7427H3125.24V63.7427H3135.33V57.7427Z" fill="#24315E"/>
</svg>
