<svg width="50" height="50" viewBox="0 0 50 50" fill="none" xmlns="http://www.w3.org/2000/svg">
<path d="M45.6055 5.95703H4.39453C1.97139 5.95703 0 7.92842 0 10.3516V39.6484C0 42.0716 1.97139 44.043 4.39453 44.043H45.6055C48.0286 44.043 50 42.0716 50 39.6484V10.3516C50 7.92842 48.0286 5.95703 45.6055 5.95703ZM39.2393 8.88672L25 19.5103L10.7607 8.88672H39.2393ZM4.39453 8.88672H5.86143L24.124 22.512C24.3839 22.7059 24.6919 22.8027 25 22.8027C25.3081 22.8027 25.6161 22.7059 25.876 22.512L44.1386 8.88672H45.6055C46.4126 8.88672 47.0692 9.54287 47.0702 10.3498L25 26.8338L2.92979 10.3498C2.93076 9.54287 3.5874 8.88672 4.39453 8.88672ZM24.1234 29.8357C24.3834 30.0299 24.6917 30.127 25 30.127C25.3083 30.127 25.6166 30.0299 25.8766 29.8357L41.2109 18.3826V41.1133H8.78906V18.3826L24.1234 29.8357ZM2.92969 39.6484V14.0063L5.85938 16.1945V41.1133H4.39453C3.58682 41.1133 2.92969 40.4562 2.92969 39.6484ZM45.6055 41.1133H44.1406V16.1945L47.0703 14.0063V39.6484C47.0703 40.4562 46.4132 41.1133 45.6055 41.1133Z" fill="white"/>
</svg>
