<svg width="50" height="50" viewBox="0 0 50 50" fill="none" xmlns="http://www.w3.org/2000/svg">
<path d="M49.1936 0H0.806452C0.361092 0 0 0.361092 0 0.806452V39.5161C0.00275643 41.7421 1.80625 43.5456 4.03226 43.5484V49.1936C4.03226 49.5196 4.22875 49.8137 4.52999 49.9386C4.83123 50.0634 5.17814 49.9941 5.4089 49.7637L11.6242 43.5484H45.9677C48.1938 43.5456 49.9972 41.7421 50 39.5161V0.806452C50 0.361092 49.6389 0 49.1936 0ZM48.3871 1.6129V8.06452H1.6129V1.6129H48.3871ZM45.9677 41.9355H11.2903C11.1844 41.9359 11.08 41.9571 10.9824 41.9977C10.8843 42.0379 10.7953 42.0969 10.7201 42.1717L5.64516 47.2467V42.7419C5.64516 42.2966 5.28407 41.9355 4.83871 41.9355H4.03226C2.69618 41.9355 1.6129 40.8522 1.6129 39.5161V9.67742H48.3871V39.5161C48.3871 40.8522 47.3038 41.9355 45.9677 41.9355Z" fill="white"/>
<path d="M5.64518 7.25814C6.98126 7.25814 8.06454 6.17487 8.06454 4.83879C8.06454 3.50271 6.98126 2.41943 5.64518 2.41943C4.30911 2.41943 3.22583 3.50271 3.22583 4.83879C3.22583 6.17487 4.30911 7.25814 5.64518 7.25814ZM5.64518 4.03234C6.09054 4.03234 6.45164 4.39343 6.45164 4.83879C6.45164 5.28415 6.09054 5.64524 5.64518 5.64524C5.19982 5.64524 4.83873 5.28415 4.83873 4.83879C4.83873 4.39343 5.19982 4.03234 5.64518 4.03234Z" fill="white"/>
<path d="M11.2902 7.25814C12.6263 7.25814 13.7096 6.17487 13.7096 4.83879C13.7096 3.50271 12.6263 2.41943 11.2902 2.41943C9.95413 2.41943 8.87085 3.50271 8.87085 4.83879C8.87085 6.17487 9.95413 7.25814 11.2902 7.25814ZM11.2902 4.03234C11.7356 4.03234 12.0967 4.39343 12.0967 4.83879C12.0967 5.28415 11.7356 5.64524 11.2902 5.64524C10.8448 5.64524 10.4838 5.28415 10.4838 4.83879C10.4838 4.39343 10.8448 4.03234 11.2902 4.03234Z" fill="white"/>
<path d="M16.9355 7.25814C18.2715 7.25814 19.3548 6.17487 19.3548 4.83879C19.3548 3.50271 18.2715 2.41943 16.9355 2.41943C15.5994 2.41943 14.5161 3.50271 14.5161 4.83879C14.5161 6.17487 15.5994 7.25814 16.9355 7.25814ZM16.9355 4.03234C17.3808 4.03234 17.7419 4.39343 17.7419 4.83879C17.7419 5.28415 17.3808 5.64524 16.9355 5.64524C16.4901 5.64524 16.129 5.28415 16.129 4.83879C16.129 4.39343 16.4901 4.03234 16.9355 4.03234Z" fill="white"/>
<path d="M13.7097 21.7739C11.9283 21.7739 10.4839 23.2183 10.4839 24.9997C10.4839 26.7812 11.9283 28.2255 13.7097 28.2255C15.4911 28.2255 16.9355 26.7812 16.9355 24.9997C16.9355 23.2183 15.4911 21.7739 13.7097 21.7739ZM13.7097 26.6126C12.819 26.6126 12.0968 25.8905 12.0968 24.9997C12.0968 24.109 12.819 23.3868 13.7097 23.3868C14.6004 23.3868 15.3226 24.109 15.3226 24.9997C15.3226 25.8905 14.6004 26.6126 13.7097 26.6126Z" fill="white"/>
<path d="M25 21.7739C23.2185 21.7739 21.7742 23.2183 21.7742 24.9997C21.7742 26.7812 23.2185 28.2255 25 28.2255C26.7814 28.2255 28.2258 26.7812 28.2258 24.9997C28.2258 23.2183 26.7814 21.7739 25 21.7739ZM25 26.6126C24.1093 26.6126 23.3871 25.8905 23.3871 24.9997C23.3871 24.109 24.1093 23.3868 25 23.3868C25.8907 23.3868 26.6129 24.109 26.6129 24.9997C26.6129 25.8905 25.8907 26.6126 25 26.6126Z" fill="white"/>
<path d="M36.2903 21.7739C34.5088 21.7739 33.0645 23.2183 33.0645 24.9997C33.0645 26.7812 34.5088 28.2255 36.2903 28.2255C38.0717 28.2255 39.5161 26.7812 39.5161 24.9997C39.5161 23.2183 38.0717 21.7739 36.2903 21.7739ZM36.2903 26.6126C35.3995 26.6126 34.6774 25.8905 34.6774 24.9997C34.6774 24.109 35.3995 23.3868 36.2903 23.3868C37.181 23.3868 37.9032 24.109 37.9032 24.9997C37.9032 25.8905 37.181 26.6126 36.2903 26.6126Z" fill="white"/>
</svg>
